<svg width="36" height="36" viewBox="0 0 36 36" fill="none" xmlns="http://www.w3.org/2000/svg">
<path d="M10.4838 36.0001C9.37953 35.656 8.92412 34.8844 9.00769 33.7585C9.00769 33.7351 9.00769 33.7107 9.00769 33.6882C9.0368 33.3076 8.86214 33.0629 8.50814 32.9382C8.45368 32.9185 8.40016 32.8932 8.34664 32.8707C7.71376 32.6007 7.62549 32.6129 7.14849 33.0985C6.81608 33.4388 6.46114 33.7398 5.97381 33.8194C5.67883 33.8763 5.3743 33.8585 5.08795 33.7678C4.8016 33.6771 4.54253 33.5163 4.33433 33.3001C3.79159 32.7648 3.2451 32.2341 2.71926 31.6838C1.95305 30.8813 1.96244 29.8501 2.71926 29.0438C2.74274 29.0185 2.76809 28.9941 2.79344 28.9698C3.46764 28.3248 3.45074 28.3135 2.97091 27.331C2.89298 27.1726 2.63382 27.0657 2.43757 27.0141C2.24132 26.9626 1.9953 27.0076 1.77276 26.9973C0.788695 26.9523 0.0459542 26.2276 0.0168455 25.2441C-0.00756829 24.4135 -0.00756829 23.5801 0.0168455 22.7485C0.0478322 21.7744 0.768037 21.0685 1.74647 21.0132C1.81595 21.0085 1.88638 21.0066 1.9568 21.0066C2.88171 20.9954 2.91645 20.9644 3.24604 20.0944C3.30541 19.9663 3.3224 19.8227 3.29454 19.6843C3.26669 19.5459 3.19544 19.42 3.09111 19.3248C2.91833 19.1494 2.73992 18.9788 2.58311 18.7904C2.01971 18.1154 1.98591 17.1582 2.57372 16.5038C3.18289 15.8231 3.82828 15.1756 4.5071 14.5641C5.17754 13.9613 6.13062 14.0016 6.81984 14.5904C7.00764 14.7498 7.17384 14.9316 7.35131 15.1023C7.4399 15.1973 7.55606 15.2624 7.68352 15.2883C7.81098 15.3142 7.94336 15.2996 8.06212 15.2466C8.24992 15.1744 8.43115 15.0976 8.61238 15.0169C8.73374 14.9695 8.83705 14.8851 8.90767 14.7757C8.97828 14.6663 9.01262 14.5375 9.00581 14.4076C9.00581 14.1732 8.9983 13.9388 9.01426 13.7044C9.07717 12.7669 9.7786 12.0516 10.7176 12.0169C11.5833 11.9888 12.4519 11.9888 13.3177 12.0169C14.2369 12.0488 14.929 12.7669 14.9881 13.6885C14.9947 13.7823 14.9975 13.876 14.9985 13.9698C15.0069 14.8519 15.1966 15.1032 16.0745 15.2673C16.2501 15.3001 16.483 15.2035 16.6379 15.0976C16.8586 14.9494 17.0239 14.7226 17.2323 14.5538C17.9281 13.9913 18.8615 13.9773 19.5178 14.5754C20.1742 15.1735 20.8221 15.8223 21.4296 16.4888C22.0118 17.1273 21.9996 18.0741 21.455 18.7473C21.2984 18.937 21.1296 19.1165 20.9498 19.2844C20.7 19.5235 20.6324 19.7916 20.7751 20.1104C20.8371 20.2491 20.8963 20.3916 20.9498 20.5323C21.0728 20.8604 21.3151 20.9907 21.6559 21.001C22.0165 21.0132 22.3893 21.001 22.7329 21.0948C23.0847 21.1862 23.3969 21.3897 23.6221 21.6745C23.8474 21.9593 23.9733 22.3098 23.9809 22.6726C24.0062 23.5501 24.0109 24.4304 23.9809 25.3079C23.9508 26.1854 23.2729 26.8866 22.3846 26.986C22.2803 26.9973 22.1742 26.9982 22.0691 26.9991C21.1301 27.0085 21.0728 27.0535 20.7545 27.9273C20.7002 28.0513 20.6857 28.1891 20.713 28.3216C20.7402 28.4542 20.8078 28.5752 20.9066 28.6679C21.0944 28.8619 21.2925 29.0429 21.4606 29.2557C21.9874 29.9119 22.024 30.8298 21.4662 31.4569C20.8354 32.1647 20.1652 32.8364 19.4587 33.4688C18.8436 34.0201 17.8999 33.9844 17.2577 33.4632C17.0492 33.2935 16.8614 33.0985 16.668 32.911C16.453 32.7029 16.2126 32.6373 15.9309 32.7629C15.8558 32.7966 15.7778 32.8229 15.7027 32.8566C15.052 33.1285 15.006 33.2035 14.9985 33.8991C15.0069 34.1446 14.9877 34.3902 14.9412 34.6313C14.79 35.2566 14.3928 35.6757 13.7881 35.8998C13.716 35.9305 13.6454 35.965 13.5768 36.0029L10.4838 36.0001ZM18.3713 32.6888C18.5262 32.6119 18.6859 32.5735 18.7873 32.4751C19.3591 31.9219 19.9272 31.3623 20.4775 30.7876C20.7366 30.5166 20.7207 30.2251 20.4775 29.9354C20.3394 29.7762 20.1913 29.6259 20.0343 29.4854C18.8436 28.4138 19.9404 26.0166 21.1207 25.8629C21.2822 25.8413 21.4437 25.8151 21.6061 25.8057C21.7939 25.7954 21.9817 25.8123 22.1695 25.8001C22.5733 25.7738 22.793 25.5563 22.7987 25.1494C22.809 24.376 22.8099 23.6026 22.7987 22.8291C22.793 22.4373 22.5733 22.2329 22.1827 22.2094C22.0418 22.201 21.901 22.2094 21.7611 22.2094C20.4061 22.2038 19.3122 20.8969 19.5282 19.5498C19.6023 19.0885 19.8333 18.7257 20.1582 18.4032C20.8512 17.7141 20.8465 17.5698 20.1488 16.8704C19.8246 16.5479 19.5012 16.2248 19.1788 15.901C18.4277 15.151 18.3338 15.151 17.5704 15.901C17.5121 15.9582 17.453 16.0154 17.3901 16.0679C16.9281 16.4494 16.3957 16.6304 15.8182 16.4532C14.5768 16.0829 13.7327 15.6648 13.8069 14.0157C13.8069 13.9688 13.8069 13.9219 13.8069 13.8751C13.7881 13.426 13.5806 13.2188 13.1261 13.2076C12.5627 13.1991 11.9993 13.2076 11.4359 13.2076C10.2462 13.2076 10.2312 13.2235 10.2068 14.4263C10.1899 15.2007 9.83118 15.7641 9.13163 16.0979C8.91003 16.2029 8.6828 16.2976 8.45181 16.3791C7.74756 16.6341 7.11656 16.4944 6.56256 15.9994C6.39635 15.8523 6.25081 15.6807 6.08367 15.5307C5.80197 15.2813 5.5015 15.2579 5.23201 15.5148C4.64795 16.0729 4.07735 16.6451 3.52022 17.2313C3.28641 17.476 3.31083 17.7938 3.539 18.0563C3.67784 18.2151 3.82583 18.3657 3.98221 18.5073C5.16252 19.5816 4.10334 21.8963 2.97091 22.1157C2.63644 22.1691 2.29834 22.1967 1.95962 22.1982C1.42815 22.2179 1.215 22.4185 1.20843 22.9482C1.20342 23.6401 1.20342 24.3316 1.20843 25.0229C1.20843 25.5741 1.42815 25.7888 1.97558 25.7963C2.08075 25.7963 2.18592 25.7963 2.29108 25.7963C3.65826 25.7963 4.77566 27.2391 4.46954 28.5835C4.35593 29.0813 4.03667 29.4273 3.69206 29.7666C3.23477 30.2194 3.23946 30.4923 3.69769 30.9526C4.13589 31.3901 4.57408 31.8276 5.01228 32.2651C5.52403 32.7751 5.77193 32.7854 6.27053 32.2651C6.72688 31.7879 7.23393 31.4213 7.92503 31.5001C8.561 31.5672 9.16057 31.8292 9.64151 32.2501C9.81824 32.4062 9.95982 32.598 10.0569 32.8128C10.154 33.0275 10.2045 33.2604 10.2049 33.496C10.2105 33.6591 10.2049 33.8241 10.2049 33.9873C10.2049 34.6004 10.4124 34.8019 11.0359 34.8038C11.5749 34.8038 12.1129 34.8038 12.6519 34.8038C13.7195 34.8038 13.789 34.7373 13.8003 33.6788C13.8106 32.7891 14.2078 32.1619 15.0445 31.8291C15.1863 31.7729 15.3262 31.7073 15.4651 31.6519C16.2285 31.351 16.9102 31.4879 17.5065 32.0476C17.652 32.1844 17.7788 32.3419 17.9356 32.4629C18.073 32.5512 18.2183 32.6268 18.3694 32.6888H18.3713Z" fill="white"/>
<path d="M35.9999 18.3517C35.8816 18.5898 35.7896 18.8467 35.6384 19.0614C35.2563 19.6032 34.6994 19.8039 34.0525 19.8039C33.5135 19.8039 32.9745 19.8123 32.4355 19.8039C32.0721 19.7973 31.8449 19.952 31.7144 20.2942C31.5266 20.7742 31.3388 21.2523 31.1219 21.7192C30.9604 22.0689 31.0214 22.3435 31.2909 22.6042C31.6787 22.9792 32.0571 23.3626 32.4346 23.747C33.2684 24.5982 33.2693 25.6323 32.4289 26.4826C31.6465 27.2751 30.8593 28.062 30.0674 28.8432C29.2336 29.6645 28.1979 29.6664 27.3575 28.8489C26.7537 28.2601 26.1593 27.661 25.5659 27.061C25.241 26.7329 25.2119 26.3579 25.4776 26.1048C25.7433 25.8517 26.0833 25.8892 26.4072 26.2079C26.9828 26.776 27.5509 27.3507 28.1246 27.9207C28.5688 28.3623 28.8495 28.3651 29.2852 27.9301C30.0402 27.1801 30.7939 26.426 31.5463 25.6679C31.9585 25.2545 31.9585 24.9723 31.5519 24.5589C31.1763 24.1745 30.7876 23.7985 30.4111 23.4132C29.7838 22.7701 29.6599 22.0885 30.0186 21.257C30.2208 20.7845 30.417 20.3092 30.6073 19.831C30.9247 19.0407 31.5003 18.6207 32.3557 18.6067C32.9191 18.5982 33.4825 18.6067 34.0459 18.602C34.6093 18.5973 34.8027 18.3779 34.8046 17.8229C34.8046 16.7448 34.8046 15.6667 34.8046 14.5885C34.8046 14.0204 34.5868 13.8029 34.0168 13.7982C33.4665 13.7935 32.9163 13.7982 32.3651 13.7982C31.5256 13.7898 30.9482 13.3904 30.6289 12.6142C30.4195 12.106 30.2129 11.597 29.997 11.0917C29.6664 10.3145 29.8092 9.62636 30.3848 9.02917C30.7754 8.62511 31.181 8.23511 31.5745 7.83292C31.9501 7.44573 31.9566 7.15605 31.5745 6.77355C30.8014 5.98542 30.0229 5.20386 29.2392 4.42886C28.8552 4.04823 28.5659 4.04823 28.18 4.42886C27.7941 4.80948 27.4025 5.20979 27.0091 5.59511C26.3781 6.21386 25.6945 6.33948 24.887 5.99917C24.4025 5.79386 23.9151 5.59417 23.4278 5.39636C22.6146 5.06636 22.2184 4.49355 22.2071 3.61511C22.2015 3.06386 22.2118 2.51354 22.2071 1.96229C22.1996 1.43448 21.978 1.21229 21.4559 1.20667C20.3541 1.20229 19.253 1.20229 18.1525 1.20667C17.6286 1.20667 17.4135 1.42605 17.4013 1.96136C17.3891 2.49667 17.4013 3.03948 17.3966 3.57855C17.3835 4.52448 16.9872 5.07855 16.1102 5.42448C15.6313 5.61198 15.159 5.81448 14.6858 6.01605C13.9242 6.34136 13.2416 6.21292 12.6463 5.64948C12.2294 5.25479 11.834 4.83761 11.4256 4.43636C11.0397 4.06136 10.7486 4.05573 10.3673 4.43636C9.58548 5.21198 8.80674 5.99073 8.03114 6.77261C7.65554 7.14761 7.65554 7.45136 8.03114 7.83292C8.5889 8.40104 9.15793 8.95792 9.72132 9.52604C9.81501 9.61424 9.89847 9.71267 9.97015 9.81948C10.0342 9.93104 10.0597 10.0606 10.0426 10.188C10.0256 10.3155 9.96689 10.4338 9.8757 10.5246C9.78451 10.6155 9.66588 10.6738 9.53817 10.6905C9.41046 10.7073 9.28078 10.6815 9.16919 10.6173C9.07957 10.5618 8.99724 10.4953 8.92412 10.4195C8.33537 9.83261 7.74286 9.24854 7.16163 8.65323C6.34377 7.81604 6.34471 6.77823 7.16163 5.94292C7.94224 5.14855 8.72912 4.36105 9.52225 3.58042C10.373 2.73667 11.4087 2.73667 12.2575 3.5748C12.6331 3.94417 13.0031 4.3248 13.3778 4.6923C13.7261 5.03636 13.8726 5.05886 14.3167 4.87042C14.7609 4.68198 15.2172 4.47573 15.6783 4.30792C16.0539 4.17104 16.2116 3.93292 16.2004 3.53823C16.1863 3.01136 16.191 2.48354 16.2004 1.95667C16.2144 0.96667 16.6304 0.399483 17.5685 0.0676079C17.5989 0.0523432 17.6268 0.0324143 17.6511 0.00854492H21.9385C23.0569 0.365732 23.4794 1.16542 23.4109 2.29417C23.3846 2.72542 23.4165 3.16042 23.4043 3.59355C23.394 3.94886 23.5583 4.15605 23.8738 4.28823C24.3621 4.4823 24.8503 4.67823 25.3292 4.8948C25.6635 5.04573 25.9311 4.98855 26.1837 4.73073C26.5659 4.33511 26.9565 3.94698 27.3499 3.56354C28.1885 2.74604 29.2195 2.74229 30.058 3.56354C30.8611 4.34979 31.6565 5.14355 32.444 5.9448C33.2656 6.78198 33.2609 7.8198 32.444 8.65417C32.059 9.04698 31.6721 9.43792 31.2768 9.82136C31.0176 10.0726 30.9604 10.3389 31.1134 10.6754C31.3294 11.1535 31.5228 11.6429 31.7153 12.1323C31.8421 12.4539 32.0562 12.6123 32.4111 12.601C32.9745 12.5889 33.5379 12.5935 34.0957 12.601C34.7426 12.6076 35.2901 12.8354 35.6619 13.382C35.8028 13.5901 35.8854 13.8385 35.9943 14.0682L35.9999 18.3517Z" fill="white"/>
<path d="M27.5942 15.99C27.5688 18.2166 26.8956 19.9772 25.5378 21.4716C25.1322 21.9178 24.796 22.0022 24.4965 21.7378C24.1969 21.4735 24.2317 21.1257 24.6458 20.6785C25.5173 19.7524 26.1017 18.5942 26.3284 17.3438C26.8477 14.5407 25.4955 11.7516 22.933 10.3453C20.5386 9.03285 17.424 9.42941 15.3911 11.31C15.3225 11.3738 15.2568 11.4413 15.1845 11.4975C14.8662 11.7582 14.5065 11.7525 14.2793 11.4863C14.0521 11.22 14.0849 10.8778 14.3835 10.6153C14.7441 10.2815 15.1272 9.97264 15.53 9.69097C20.1724 6.63472 26.4308 9.29816 27.4665 14.7694C27.5491 15.2391 27.567 15.7219 27.5942 15.99Z" fill="white"/>
<path d="M12.0294 18.6086C15.069 18.6752 17.4521 21.0911 17.3977 24.0461C17.3338 27.4933 14.7807 29.3842 11.9459 29.3805C8.87538 29.3805 6.55137 26.883 6.61428 23.7798C6.6725 20.942 9.17961 18.5467 12.0294 18.6086ZM12.0135 19.8086C11.4619 19.808 10.9156 19.9158 10.4058 20.126C9.896 20.3362 9.43264 20.6445 9.04219 21.0335C8.65174 21.4225 8.34184 21.8844 8.1302 22.3929C7.91855 22.9015 7.8093 23.4467 7.80868 23.9973C7.80807 24.548 7.9161 25.0935 8.1266 25.6025C8.33711 26.1115 8.64597 26.5741 9.03555 26.9639C9.42513 27.3538 9.8878 27.6632 10.3971 27.8745C10.9065 28.0858 11.4525 28.1949 12.0041 28.1955C14.2868 28.203 16.1845 26.327 16.1901 24.0564C16.1958 21.6864 14.36 19.8189 12.0135 19.8086Z" fill="white"/>
</svg>
