<svg width="46" height="36" viewBox="0 0 46 36" fill="none" xmlns="http://www.w3.org/2000/svg">
<path d="M45.2891 18.0433C45.2891 19.5927 45.2891 21.1416 45.2891 22.6901C45.2891 23.4828 45.108 23.6524 44.2844 23.6524C42.9861 23.6524 41.6877 23.6668 40.3906 23.6428C40.0333 23.6356 39.9011 23.7631 39.7788 24.0758C37.1368 30.6989 32.2751 34.7382 25.125 35.8028C16.6607 37.0682 8.39824 32.045 5.51766 24.1047C5.39529 23.7679 5.25578 23.6392 4.87766 23.6464C3.56463 23.6741 2.2516 23.6584 0.938574 23.6572C0.204355 23.6572 0.0012207 23.4624 0.0012207 22.7599C0.0012207 19.5875 0.0012207 16.4146 0.0012207 13.2414C0.0012207 12.5462 0.187223 12.3621 0.895744 12.3597C2.22468 12.3597 3.55362 12.3465 4.88133 12.3681C5.23009 12.3681 5.37081 12.2611 5.50175 11.9423C8.05928 5.4407 12.8182 1.45434 19.7823 0.253857C28.3152 -1.21727 36.8725 3.83605 39.7653 11.8749C39.8999 12.2478 40.0663 12.379 40.4726 12.3705C41.7856 12.3417 43.0999 12.3561 44.4129 12.3609C45.0921 12.3609 45.2879 12.5546 45.2879 13.2162C45.2903 14.8256 45.2907 16.4347 45.2891 18.0433ZM1.33505 13.6456V22.3064H32.4329V13.6456H1.33505ZM33.823 13.6456V22.3184H43.9797V13.6468L33.823 13.6456ZM6.71321 23.6296C7.52853 25.8677 8.82632 27.9062 10.5177 29.6055C12.4406 28.513 14.5308 27.7338 16.7072 27.2984C16.4967 26.0486 16.2936 24.8445 16.088 23.6272L6.71321 23.6296ZM38.5734 12.3344C37.8027 10.2175 36.5944 8.28027 35.0247 6.6448C34.7983 6.40422 34.6454 6.40422 34.3749 6.55939C32.9606 7.35893 31.4424 7.96593 29.8619 8.36372C29.4397 8.47077 29.0176 8.57423 28.5893 8.68249C28.7973 9.92026 28.998 11.1147 29.2011 12.3332L38.5734 12.3344ZM28.6284 27.3008C30.7963 27.7186 32.8758 28.4968 34.7775 29.6019C36.4686 27.8894 37.7759 25.8475 38.615 23.6079H34.3407C32.7694 23.6079 31.1982 23.6019 29.627 23.6187C29.4752 23.6187 29.2085 23.745 29.1901 23.8473C28.9821 24.9804 28.8132 26.1207 28.6284 27.3008ZM10.4638 6.41384C8.80356 8.08926 7.53088 10.0973 6.73279 12.3008C6.77751 12.323 6.82474 12.3399 6.87351 12.3513C9.84587 12.3513 12.8195 12.3597 15.7918 12.3453C15.9044 12.3453 16.088 12.1636 16.1149 12.0409C16.2103 11.6175 16.2373 11.1809 16.3144 10.7514C16.4294 10.0634 16.5591 9.37655 16.6717 8.74022C15.5789 8.40943 14.5131 8.14479 13.4901 7.76348C12.467 7.38216 11.4991 6.88056 10.4638 6.41384ZM18.3347 28.3064C18.3321 28.3783 18.3358 28.4504 18.3457 28.5217C18.7532 29.9567 19.2206 31.3749 20.0417 32.6344C20.4325 33.2403 20.9107 33.7873 21.4612 34.2583C22.1954 34.8778 23.052 34.8597 23.8144 34.2727C24.2206 33.957 24.5798 33.587 24.8815 33.1733C25.8041 31.9162 26.3254 30.4728 26.7709 29.0016C26.8382 28.7803 26.8932 28.5542 26.9569 28.3124C24.0995 27.8838 21.1928 27.881 18.3347 28.304V28.3064ZM27.111 7.67447C26.5689 6.35129 26.1321 5.07984 25.5325 3.89499C25.1519 3.1468 24.5658 2.4792 23.9784 1.86332C23.7517 1.61375 23.4547 1.43595 23.1251 1.35244C22.7955 1.26892 22.4481 1.28346 22.1269 1.39419C21.3927 1.62755 20.8861 2.1472 20.4529 2.73782C19.3993 4.17046 18.8168 5.81119 18.3396 7.49403C18.336 7.55284 18.3426 7.61183 18.3592 7.66845C21.2336 8.09187 24.0861 8.07021 27.111 7.67206V7.67447ZM27.9175 12.3417C27.7119 11.152 27.5185 10.0249 27.3399 8.98802C25.6952 9.07703 24.1583 9.22859 22.6213 9.22859C21.0843 9.22859 19.5535 9.07583 17.9529 8.98802L17.3851 12.3344L27.9175 12.3417ZM17.3741 23.6296C17.576 24.8096 17.7681 25.9391 17.9468 26.9832C19.5829 26.8942 21.1198 26.7426 22.6556 26.7426C24.1913 26.7426 25.727 26.893 27.3338 26.9832C27.5149 25.9235 27.7009 24.794 27.9052 23.6308L17.3741 23.6296ZM25.53 1.53012C26.9483 3.33445 27.6691 5.34928 28.287 7.399C29.4471 7.3545 32.9151 6.13357 33.7692 5.40823C31.4038 3.38257 28.6896 2.12434 25.53 1.53012ZM11.5285 30.5077C13.0691 32.1785 17.434 34.2486 19.7187 34.387C18.3518 32.6332 17.62 30.6195 17.007 28.565C15.7466 28.6492 12.8036 29.6921 11.5285 30.5077ZM33.7814 30.5077C32.0782 29.5646 30.2304 28.9 28.3103 28.5397C27.926 29.5899 27.6189 30.6159 27.1796 31.583C26.7403 32.5502 26.17 33.4632 25.6536 34.4062C28.6651 33.8357 31.4693 32.4919 33.7814 30.5113V30.5077ZM11.5101 5.44672C13.227 6.40285 15.0931 7.07309 17.0327 7.43028C17.6286 5.32523 18.3555 3.32362 19.7811 1.52771C16.7184 2.08714 13.8636 3.44146 11.5126 5.45033L11.5101 5.44672Z" fill="white"/>
<path d="M6.62887 18.1142C6.9813 17.241 7.29457 16.4771 7.5956 15.7085C7.71797 15.4053 7.87705 15.1744 8.24538 15.1792C8.61372 15.184 8.7936 15.3885 8.91474 15.6952C9.21944 16.4627 9.5266 17.2265 9.88514 18.101C10.0565 17.4996 10.2009 17.0112 10.3416 16.518C10.4236 16.2293 10.4896 15.9358 10.5863 15.6495C10.6916 15.3272 10.9167 15.1263 11.2728 15.19C11.6289 15.2538 11.9373 15.528 11.848 15.8841C11.46 17.4094 11.0281 18.925 10.5729 20.4334C10.5288 20.5826 10.1972 20.7606 10.0308 20.7317C9.91085 20.7056 9.79792 20.6547 9.69942 20.5826C9.60092 20.5104 9.51909 20.4186 9.45929 20.3131C9.11788 19.5782 8.84744 18.8131 8.53785 18.0601C8.47789 17.9086 8.41548 17.7594 8.31268 17.5296C7.96393 18.4054 7.63843 19.2053 7.33373 20.01C7.18566 20.3901 7.0278 20.7666 6.53343 20.7402C6.05741 20.7137 5.95217 20.3336 5.84938 19.9559C5.49818 18.6676 5.1323 17.3817 4.7762 16.0934C4.65383 15.6279 4.80434 15.2995 5.19103 15.1972C5.54223 15.1034 5.84571 15.3175 5.97786 15.765C6.18345 16.5168 6.38903 17.2662 6.62887 18.1142Z" fill="white"/>
<path d="M15.2828 18.1082C15.5691 17.3949 15.8175 16.7718 16.0659 16.1487C16.1333 15.9815 16.1651 15.7879 16.2789 15.6556C16.4453 15.4691 16.6754 15.2081 16.8711 15.2129C17.0049 15.232 17.1326 15.2806 17.2447 15.3549C17.3568 15.4293 17.4504 15.5275 17.5185 15.6423C17.833 16.2726 18.0642 16.9438 18.3298 17.5982C18.38 17.7185 18.4363 17.8388 18.5354 18.0661C18.6406 17.7269 18.7189 17.4839 18.7887 17.2386C18.938 16.7189 19.0824 16.1981 19.2304 15.6748C19.3381 15.2959 19.5975 15.1203 19.9842 15.2021C20.0739 15.2245 20.1581 15.2641 20.2321 15.3186C20.3062 15.3731 20.3686 15.4414 20.4157 15.5196C20.4629 15.5978 20.4939 15.6844 20.507 15.7744C20.5201 15.8644 20.515 15.956 20.4921 16.0441C20.1103 17.4491 19.7309 18.8552 19.3063 20.2482C19.2427 20.4563 18.9673 20.6788 18.7434 20.7438C18.435 20.8352 18.2001 20.6066 18.0814 20.3155C17.7693 19.5505 17.4695 18.7819 17.1587 18.0144C17.1098 17.8941 17.0535 17.7738 16.9605 17.5621C16.7928 17.9663 16.6546 18.2839 16.5236 18.6135C16.3278 19.1018 16.1296 19.589 15.9473 20.0822C15.8126 20.443 15.6352 20.7594 15.1935 20.7486C14.7517 20.7378 14.6024 20.3949 14.5008 20.0268C14.1925 18.8973 13.8768 17.7702 13.5635 16.6419C13.5035 16.4242 13.4411 16.2089 13.3848 15.99C13.2906 15.6062 13.446 15.3392 13.8156 15.2105C14.1374 15.0986 14.4605 15.2839 14.5804 15.67C14.7774 16.3003 14.9475 16.9402 15.1261 17.5754C15.1665 17.7173 15.2094 17.8592 15.2828 18.1082Z" fill="white"/>
<path d="M23.8927 18.1166C24.2439 17.2421 24.5486 16.4927 24.846 15.7385C24.9683 15.4246 25.1299 15.1683 25.5239 15.1792C25.9179 15.19 26.0807 15.4366 26.2043 15.7505C26.49 16.5074 26.8168 17.2486 27.1832 17.9711C27.3464 17.4097 27.5095 16.8484 27.6727 16.287C27.74 16.0561 27.7951 15.8191 27.8734 15.5942C27.8931 15.5206 27.9278 15.4518 27.9756 15.3919C28.0233 15.332 28.083 15.2824 28.1509 15.246C28.2189 15.2096 28.2937 15.1872 28.3707 15.1803C28.4478 15.1734 28.5255 15.182 28.599 15.2056C28.7529 15.2314 28.8906 15.3146 28.9834 15.438C29.0763 15.5613 29.117 15.7151 29.0971 15.8672C29.0717 16.061 29.0274 16.2519 28.9649 16.4374C28.6309 17.6403 28.2919 18.8432 27.9603 20.0461C27.8648 20.3949 27.7498 20.7353 27.3178 20.7678C26.8626 20.7967 26.706 20.4635 26.5701 20.1062C26.2508 19.281 25.913 18.4607 25.5435 17.538L24.5816 19.9125C24.4262 20.2987 24.3369 20.7858 23.7777 20.7546C23.2184 20.7233 23.1781 20.2373 23.0655 19.8319C22.7326 18.6291 22.3977 17.4262 22.0608 16.2233C22.04 16.1511 22.0155 16.0801 22.0009 16.0068C21.9201 15.5978 22.0951 15.2706 22.4573 15.202C22.8599 15.1262 23.0985 15.338 23.2038 15.7C23.4289 16.4639 23.6406 17.2301 23.8927 18.1166Z" fill="white"/>
<path d="M39.6663 19.6022C38.9443 19.969 38.2419 20.1086 37.4991 19.8969C37.1527 19.8006 36.8296 19.6367 36.5491 19.415C36.2686 19.1933 36.0364 18.9182 35.8665 18.6063C35.6965 18.2944 35.5922 17.952 35.5599 17.5996C35.5276 17.2472 35.5678 16.892 35.6782 16.5552C36.1677 15.101 37.7867 14.3684 39.2808 14.9301C40.6269 15.4366 41.2865 17.0135 40.6917 18.3716C40.5755 18.6362 40.5938 18.7914 40.8141 18.9851C41.2302 19.3604 41.623 19.7621 42.017 20.1603C42.3535 20.5007 42.3841 20.882 42.1075 21.1551C41.831 21.4281 41.4468 21.3957 41.1029 21.0601C40.6146 20.5813 40.1435 20.0905 39.6663 19.6022ZM39.5818 17.3552C39.5827 16.9918 39.4366 16.643 39.1758 16.3855C38.915 16.128 38.5608 15.9829 38.1911 15.9821C37.8214 15.9813 37.4666 16.1249 37.2046 16.3812C36.9427 16.6376 36.7951 16.9858 36.7942 17.3491C36.8029 17.7116 36.9526 18.057 37.2126 18.3141C37.4726 18.5713 37.823 18.7206 38.1917 18.7313C38.5615 18.7294 38.9154 18.5835 39.176 18.3255C39.4366 18.0676 39.5825 17.7187 39.5818 17.3552Z" fill="white"/>
</svg>
