<svg id="Layer_1" data-name="Layer 1" xmlns="http://www.w3.org/2000/svg" viewBox="0 0 365.82 365.83">
  <defs>
    <style>
      .cls-1 {
        fill: #fef0bb;
      }

      .cls-2 {
        fill: #fefefe;
      }
    </style>
  </defs>
  <g>
    <path class="cls-1" d="M866.9,399c-1.32,7.77-2.36,15.61-4,23.3a183.08,183.08,0,0,1-83.23,117.38A178.74,178.74,0,0,1,714.28,564c-10.15,1.65-20.38,2.95-30.63,2.78a207.93,207.93,0,0,1-41.78-5.27c-28-6.25-52.51-19.27-74.58-37.11-17.75-14.36-31.81-32-42.94-51.87a185.58,185.58,0,0,1-22.05-68.22,170.3,170.3,0,0,1,2.39-54.9,191.65,191.65,0,0,1,19.37-54.11c11.72-21.61,27.63-39.77,46.8-55.09A178.93,178.93,0,0,1,642,205.69c20.34-4.85,40.93-5.78,61.76-3.74a182.39,182.39,0,0,1,136.2,85.82c13.66,22.1,21.65,46.1,25.88,71.54.48,2.89-.89,6,1.11,8.7Z" transform="translate(-501.08 -200.93)"/>
    <path class="cls-2" d="M683.62,551.92c-92.32-.28-168.53-75.6-167.57-169.68,1-92.23,74.23-167,168-166.8,94.6.14,167.87,73.87,168.49,167.52C853.12,477.15,777.65,552,683.62,551.92Z" transform="translate(-501.08 -200.93)"/>
    <path class="cls-1" d="M790.79,332.07a152.28,152.28,0,0,0,30.13-2.85c5.91-1.06,7.1-.4,9.05,5.53a153.47,153.47,0,0,1,7.79,58.32,134.48,134.48,0,0,1-4.67,28.36c-.76,2.66-1.3,3.57-4.31,2.56q-30.43-10.28-61-20.1c-3.71-1.19-5-2.63-3.8-6.62a300.14,300.14,0,0,0,11.94-61.79c.23-2.61,1.53-3.44,3.88-3.42C783.47,332.1,787.13,332.07,790.79,332.07Z" transform="translate(-501.08 -200.93)"/>
    <path class="cls-1" d="M767.41,512.75c-2.28.23-3.23-1.07-4.18-2.17C754,500,743.32,491.15,732,483c-3.57-2.56-4.11-4.35-1.62-8.33a278.16,278.16,0,0,0,26.51-55.61c1-2.76,2-3.3,4.65-2.4q31.62,10.65,63.33,21c2.94,1,2.49,2.21,1.6,4.36a155.16,155.16,0,0,1-22.69,38.45,153.34,153.34,0,0,1-33,30.1C769.58,511.48,768.29,512.21,767.41,512.75Z" transform="translate(-501.08 -200.93)"/>
    <path class="cls-1" d="M601.55,254.34c1.76,0,2.5,1.28,3.39,2.21a228,228,0,0,0,32.84,28.92c2,1.44,2.36,2.9,1,5a301.63,301.63,0,0,0-27.42,56.85c-1.12,3.08-2.56,3.9-5.95,2.75q-29.94-10.15-60.06-19.79c-3.71-1.19-4.63-2.27-3-6.23,12-28.38,31-50.79,56.27-68.11C599.64,255.31,600.7,254.82,601.55,254.34Z" transform="translate(-501.08 -200.93)"/>
    <path class="cls-1" d="M578.41,435c-11-.35-22.46,1.64-33.91,3.3-3.94.58-4.5-1.25-5.45-3.83a153.88,153.88,0,0,1-7.85-34.3c-2.21-17.93-.51-35.65,3.64-53.21.94-4,2.53-4.29,5.95-3.14Q571,354,601.3,363.85c3.24,1,3.63,2.49,2.75,5.39-4.89,16.18-8,32.75-10.69,49.43a114.87,114.87,0,0,0-1.25,12.83c-.11,2.56-1,3.61-3.55,3.49C585.4,434.86,582.24,435,578.41,435Z" transform="translate(-501.08 -200.93)"/>
    <path class="cls-1" d="M677.58,374c-.88-.28-2-.61-3.09-1-15.73-5.25-31.42-10.62-47.21-15.68-3.77-1.21-4.38-2.36-3-6.28A320.4,320.4,0,0,1,649,299c2-3.43,3.48-4,7.19-1.67a209.59,209.59,0,0,0,37.93,18.5c3,1.12,4.2,2.12,3,5.66-5.51,16.16-10.71,32.42-16,48.64C680.52,371.85,680.3,373.87,677.58,374Z" transform="translate(-501.08 -200.93)"/>
    <path class="cls-1" d="M654.91,444.66c-7.32-1.62-14.11-3.75-21.15-5A244.35,244.35,0,0,0,608.23,436c-1.81-.14-3.09-.14-2.84-2.78a308.17,308.17,0,0,1,11.39-59.41c1.11-3.65,2.36-4,5.56-2.9q24.33,8.14,48.77,15.94c3.07,1,3.9,2.09,2.8,5.28-5.61,16.34-11,32.75-16.5,49.12C656.92,442.69,657,444.76,654.91,444.66Z" transform="translate(-501.08 -200.93)"/>
    <path class="cls-1" d="M744.8,413c-.76,2.3-1.36,4.56-2.26,6.7-6.88,16.39-13.9,32.71-23.31,47.89-1.79,2.88-2.85,4.89-7,2.27-12.06-7.65-25.09-13.54-38.42-18.66-3.18-1.23-3.56-2.8-2.6-5.64,5.48-16.21,11-32.41,16.21-48.7,1.15-3.58,2.74-3.68,5.78-2.67,16.22,5.42,32.49,10.68,48.73,16C743.3,410.62,745,411,744.8,413Z" transform="translate(-501.08 -200.93)"/>
    <path class="cls-1" d="M762.45,334.63c-1.18,19.61-5.82,38.55-10.62,57.46-1.08,4.22-2.82,5.61-7.39,4-15.33-5.39-30.78-10.46-46.27-15.41-3.79-1.21-4.43-2.8-3.16-6.46,5.37-15.52,10.61-31.09,15.6-46.74,1.33-4.17,3.08-4.87,7.24-3.78,13.59,3.56,27.33,6.52,41.43,7.35C761.65,331.19,763.17,331.92,762.45,334.63Z" transform="translate(-501.08 -200.93)"/>
    <path class="cls-1" d="M605,460.15c-.06-10.71,0-11.06,9.59-10.09a202.74,202.74,0,0,1,35,7c3.27.92,1.87,3,1.3,4.72-4.41,13.39-8.9,26.76-13.35,40.14-2.26,6.77-4.62,13.51-6.67,20.34-1.18,4-2.37,3.64-5.09,1.09-10.51-9.84-14.43-22.89-17.56-36.15C606.1,478.19,604.7,469,605,460.15Z" transform="translate(-501.08 -200.93)"/>
    <path class="cls-1" d="M721,236.28c3.69-.39,3.82.8,3.13,2.88q-10.44,31.16-20.74,62.37c-.88,2.65-2.26,2.8-4.52,2-12.8-4.77-24.82-11.11-36.6-17.93-1.74-1-2.63-2.25-1-4.41,13.81-18.17,29-34.72,51.2-42.74A72,72,0,0,1,721,236.28Z" transform="translate(-501.08 -200.93)"/>
    <path class="cls-1" d="M707.74,484.26c-2.2,3-4.33,6.15-6.74,9.08-10,12.12-21.13,22.93-34.84,30.86A54,54,0,0,1,647,530.74c-2.66.41-3.4-.9-2.7-3.18,1.13-3.64,2.45-7.23,3.64-10.86,5.41-16.57,10.9-33.11,16.12-49.73,1.12-3.55,2.5-4.23,6-3,12.38,4.5,23.93,10.66,35.31,17.17C706.46,481.82,707.65,482.55,707.74,484.26Z" transform="translate(-501.08 -200.93)"/>
    <path class="cls-1" d="M763,306.84c0,10.77,0,11-10.57,10.14-11.1-.89-21.82-3.88-32.59-6.51-3.4-.84-2.89-2.76-2-5.27,3.94-11.64,7.78-23.32,11.61-35,2.8-8.51,5.7-17,8.24-25.59,1.1-3.73,2.17-3.16,4.48-1,10.47,9.83,14.63,22.8,17.69,36.13C761.81,288.61,763.24,297.66,763,306.84Z" transform="translate(-501.08 -200.93)"/>
    <path class="cls-1" d="M766.72,254.3A102.16,102.16,0,0,1,784.28,267a159.73,159.73,0,0,1,36.09,45.17c1.19,2.19,2.14,3.49-1.73,4.05a258.61,258.61,0,0,1-37.08,2.92c-3.26,0-4.65-.67-4.73-4.36-.42-20.27-2.59-40.28-10.48-59.26C766.26,255.25,766.53,254.89,766.72,254.3Z" transform="translate(-501.08 -200.93)"/>
    <path class="cls-1" d="M673.75,536.39a171,171,0,0,0,23.91-19.51C704.45,510,711,503,716.53,495.08c2.13-3.07,4.09-4.33,7.86-1.38,9.41,7.38,18.4,15.18,27.16,23.3,2.7,2.51,2.27,3.65-.92,5.15a156.37,156.37,0,0,1-46.93,13.92C693.75,537.34,683.87,536.59,673.75,536.39Z" transform="translate(-501.08 -200.93)"/>
    <path class="cls-1" d="M602.52,513.37a77.27,77.27,0,0,1-17.76-12.47c-14.42-12.93-27.15-27.3-36.11-44.71-1.8-3.49-2.14-4.89,2.75-5.45,11.85-1.35,23.68-2.61,35.62-2.8,3-.05,4,.82,4.12,3.94C591.63,472.47,593.46,492.86,602.52,513.37Z" transform="translate(-501.08 -200.93)"/>
    <path class="cls-1" d="M695.16,230.51c-5.55,4.31-11.36,8-16.65,12.37a151.38,151.38,0,0,0-26.66,28.69c-2.81,3.95-4.84,4.4-8.74,1.26-9.14-7.37-18.36-14.61-26.32-23.33-2-2.18-1.55-3.14.87-4.28a157.85,157.85,0,0,1,49.85-14.28C676.74,229.92,685.87,230.32,695.16,230.51Z" transform="translate(-501.08 -200.93)"/>
  </g>
</svg>
