<svg width="161" height="31" viewBox="0 0 161 31" fill="none" xmlns="http://www.w3.org/2000/svg">
<path d="M3.30859 20.5254C4.91276 20.5254 5.71484 19.2174 5.71484 16.6016V2.91602C5.71484 2.67904 5.7832 2.47396 5.91992 2.30078C6.05664 2.1276 6.22982 2.04102 6.43945 2.04102H8.4082C8.60872 2.04102 8.77734 2.1276 8.91406 2.30078C9.05078 2.47396 9.11914 2.67904 9.11914 2.91602V17.3535C9.11914 19.377 8.6224 20.9082 7.62891 21.9473C6.73568 22.8861 5.50977 23.3555 3.95117 23.3555C2.97591 23.3555 2.23763 23.2507 1.73633 23.041C1.23503 22.8405 0.888672 22.6491 0.697266 22.4668C0.514974 22.2754 0.423828 22.084 0.423828 21.8926C0.423828 21.6921 0.446615 21.5189 0.492188 21.373L0.615234 20.9629C0.797526 20.3704 1.03451 20.0742 1.32617 20.0742C1.4082 20.0742 1.50846 20.097 1.62695 20.1426L2.05078 20.293C2.47005 20.4479 2.88932 20.5254 3.30859 20.5254ZM16.4336 16.041L16.4199 16.3008C16.4199 17.5495 16.8164 18.5521 17.6094 19.3086C18.4388 20.1107 19.5645 20.5117 20.9863 20.5117C22.2806 20.5117 23.4837 20.1243 24.5957 19.3496C24.8053 19.2038 24.9922 19.1309 25.1562 19.1309C25.4935 19.1309 25.7487 19.2995 25.9219 19.6367L26.291 20.4023C26.373 20.5846 26.4141 20.7806 26.4141 20.9902C26.4141 21.1999 26.3184 21.4186 26.127 21.6465C25.9447 21.8652 25.7031 22.0658 25.4023 22.248C25.1016 22.4303 24.7507 22.5898 24.3496 22.7266C23.9577 22.8633 23.5521 22.9772 23.1328 23.0684C22.2943 23.2507 21.4193 23.3418 20.5078 23.3418C19.5964 23.3418 18.6758 23.1686 17.7461 22.8223C16.8255 22.4759 16.028 21.9701 15.3535 21.3047C13.9043 19.8919 13.1797 17.9824 13.1797 15.5762C13.1797 11.3561 14.6654 8.73112 17.6367 7.70117C18.5664 7.38216 19.5189 7.22266 20.4941 7.22266C21.4785 7.22266 22.3125 7.32747 22.9961 7.53711C23.6888 7.74674 24.2858 8.05664 24.7871 8.4668C25.8444 9.33268 26.373 10.5404 26.373 12.0898C26.373 13.612 25.7533 14.7741 24.5137 15.5762C23.429 16.278 21.998 16.6289 20.2207 16.6289C19.127 16.6289 17.8646 16.4329 16.4336 16.041ZM23.1602 12.0488C23.1602 10.7454 22.2852 10.0938 20.5352 10.0938C18.8672 10.0938 17.7005 10.7044 17.0352 11.9258C16.7982 12.3542 16.6432 12.8828 16.5703 13.5117C17.3542 13.9036 18.3522 14.0996 19.5645 14.0996C21.9616 14.0996 23.1602 13.416 23.1602 12.0488ZM42.2734 7.57812C42.8568 7.57812 43.1484 7.86523 43.1484 8.43945C43.1484 9.10482 42.8021 10.5768 42.1094 12.8555L41.2617 15.4668C39.2656 21.1908 36.791 25.903 33.8379 29.6035L33.5645 29.9453C33.1452 30.4831 32.7168 30.752 32.2793 30.752C31.8145 30.752 31.2767 30.4284 30.666 29.7812C30.4928 29.599 30.4062 29.3893 30.4062 29.1523C30.4062 28.7695 30.6113 28.3639 31.0215 27.9355C31.4316 27.5163 31.8099 27.0924 32.1562 26.6641C32.5026 26.2448 32.8307 25.821 33.1406 25.3926C33.7057 24.6178 34.2161 23.8021 34.6719 22.9453C33.25 19.1081 32.3887 16.8112 32.0879 16.0547L30.5977 12.3496L29.5449 9.95703C29.153 9.04557 28.957 8.49414 28.957 8.30273C28.957 8.10221 29.0391 7.93359 29.2031 7.79688C29.3763 7.65104 29.6178 7.57812 29.9277 7.57812H31.6504C32.0514 7.57812 32.3613 7.80599 32.5801 8.26172C32.7441 8.59896 32.9674 9.15495 33.25 9.92969C33.8242 11.6068 34.2435 12.8509 34.5078 13.6621L35.6152 17.2852C35.7246 17.6497 35.8066 17.9414 35.8613 18.1602L35.9844 18.6523C36.0117 18.7617 36.0436 18.8984 36.0801 19.0625L36.2031 19.582C36.2487 19.7643 36.2988 19.8555 36.3535 19.8555C36.4082 19.8555 36.4674 19.8008 36.5312 19.6914C36.6042 19.582 36.6771 19.4408 36.75 19.2676L36.9824 18.6934C37.9303 16.2598 38.8281 12.8509 39.6758 8.4668C39.7852 7.87435 40.127 7.57812 40.7012 7.57812H42.2734Z" fill="#4F80FF"/>
<path d="M54.5781 3.23047C54.5781 2.91146 54.6829 2.63346 54.8926 2.39648C55.1113 2.15951 55.4121 2.04102 55.7949 2.04102H60.1289C63.7383 2.04102 66.4544 2.93424 68.2773 4.7207C70.0091 6.43424 70.875 8.88151 70.875 12.0625C70.875 15.4622 69.8997 18.1374 67.9492 20.0879C66.0078 22.0293 63.319 23 59.8828 23H55.7949C55.4121 23 55.1113 22.8815 54.8926 22.6445C54.6829 22.3984 54.5781 22.1159 54.5781 21.7969V3.23047ZM60.5391 5.04883H59.8555C59.5547 5.04883 58.9395 5.0625 58.0098 5.08984V19.9785L60.2383 20.0195H60.3203C63.8477 20.0195 66.0169 18.4974 66.8281 15.4531C67.0924 14.4688 67.2246 13.3796 67.2246 12.1855C67.2246 10.9824 67.0788 9.94792 66.7871 9.08203C66.5046 8.20703 66.0807 7.46875 65.5156 6.86719C64.3763 5.65495 62.7174 5.04883 60.5391 5.04883ZM73.9375 15.2344C73.9375 14.0495 74.1335 12.9648 74.5254 11.9805C74.9264 10.987 75.4733 10.1393 76.166 9.4375C77.6152 7.97005 79.4427 7.23633 81.6484 7.23633C84.1185 7.23633 86.0326 7.97005 87.3906 9.4375C88.7031 10.8503 89.3594 12.7917 89.3594 15.2617C89.3594 17.6497 88.6165 19.6003 87.1309 21.1133C85.6816 22.599 83.8542 23.3418 81.6484 23.3418C79.3242 23.3418 77.4557 22.5807 76.043 21.0586C74.6393 19.5729 73.9375 17.6315 73.9375 15.2344ZM78.3262 11.7617C77.9889 12.263 77.7428 12.8372 77.5879 13.4844C77.4329 14.1224 77.3555 14.7741 77.3555 15.4395C77.3555 16.0957 77.4421 16.7292 77.6152 17.3398C77.7975 17.9414 78.0664 18.4792 78.4219 18.9531C79.2057 19.9922 80.2995 20.5117 81.7031 20.5117C83.1341 20.5117 84.2188 20.0013 84.957 18.9805C85.6133 18.0872 85.9414 16.8704 85.9414 15.3301C85.9414 13.0241 85.1849 11.4336 83.6719 10.5586C83.1159 10.2396 82.4414 10.0801 81.6484 10.0801C80.8646 10.0801 80.1992 10.235 79.6523 10.5449C79.1146 10.8457 78.6725 11.2513 78.3262 11.7617ZM101.91 7.23633C104.207 7.23633 105.661 8.26172 106.271 10.3125C107.183 8.84505 108.391 7.88802 109.895 7.44141C110.405 7.29557 111.048 7.22266 111.822 7.22266C112.597 7.22266 113.344 7.41406 114.064 7.79688C114.794 8.17969 115.331 8.68099 115.678 9.30078C116.033 9.91146 116.257 10.5859 116.348 11.3242C116.448 12.0625 116.498 12.8555 116.498 13.7031V22.0977C116.498 22.3529 116.416 22.5671 116.252 22.7402C116.088 22.9134 115.846 23 115.527 23H114.188C113.841 23 113.586 22.9134 113.422 22.7402C113.258 22.5671 113.176 22.3529 113.176 22.0977V13.5801C113.176 12.4043 112.971 11.5293 112.561 10.9551C112.16 10.3809 111.521 10.0938 110.646 10.0938C109.653 10.0938 108.783 10.5312 108.035 11.4062C107.233 12.3177 106.832 13.4479 106.832 14.7969V22.0977C106.832 22.3529 106.75 22.5671 106.586 22.7402C106.422 22.9134 106.18 23 105.861 23H104.521C104.175 23 103.92 22.9134 103.756 22.7402C103.592 22.5671 103.51 22.3529 103.51 22.0977V13.5801C103.51 12.4043 103.305 11.5293 102.895 10.9551C102.493 10.3809 101.855 10.0938 100.98 10.0938C99.987 10.0938 99.112 10.5312 98.3555 11.4062C97.5625 12.3177 97.166 13.4479 97.166 14.7969V22.0977C97.166 22.3529 97.0885 22.5671 96.9336 22.7402C96.7786 22.9134 96.5417 23 96.2227 23H94.8145C94.4954 23 94.2539 22.9134 94.0898 22.7402C93.9258 22.5671 93.8438 22.3529 93.8438 22.0977V13.7031C93.8438 11.8711 93.7845 10.5951 93.666 9.875C93.5475 9.14583 93.4883 8.70833 93.4883 8.5625C93.4883 7.90625 93.8027 7.57812 94.4316 7.57812H95.1836C95.694 7.57812 96.0404 7.76953 96.2227 8.15234C96.4414 8.61719 96.651 9.33724 96.8516 10.3125C97.6445 8.88151 98.793 7.93359 100.297 7.46875C100.807 7.3138 101.345 7.23633 101.91 7.23633ZM133.834 22.2754C133.834 22.7585 133.597 23 133.123 23H131.797C131.441 23 131.227 22.9316 131.154 22.7949C131.081 22.6491 131.04 22.5215 131.031 22.4121C131.022 22.2936 131.004 22.1523 130.977 21.9883C130.922 21.5417 130.844 21.0586 130.744 20.5391C130.033 21.8424 128.917 22.7038 127.395 23.123C126.857 23.2689 126.264 23.3418 125.617 23.3418C124.97 23.3418 124.323 23.2324 123.676 23.0137C123.029 22.804 122.454 22.4896 121.953 22.0703C120.823 21.1224 120.258 19.8783 120.258 18.3379C120.258 16.6517 120.878 15.362 122.117 14.4688C123.138 13.7487 124.451 13.3887 126.055 13.3887C127.659 13.3887 129.017 13.8581 130.129 14.7969C130.156 14.487 130.17 14.0996 130.17 13.6348C130.17 13.1699 130.079 12.7051 129.896 12.2402C129.714 11.7754 129.454 11.388 129.117 11.0781C128.424 10.4674 127.458 10.1621 126.219 10.1621C125.107 10.1621 123.977 10.4674 122.828 11.0781C122.609 11.1966 122.418 11.2559 122.254 11.2559C122.008 11.2559 121.771 11.0143 121.543 10.5312C121.297 10.0391 121.174 9.68359 121.174 9.46484C121.174 9.0638 121.475 8.67643 122.076 8.30273C123.225 7.5918 124.76 7.23633 126.684 7.23633C128.434 7.23633 129.883 7.71484 131.031 8.67188C132.389 9.82031 133.068 11.4427 133.068 13.5391C133.068 14.4688 132.918 15.64 132.617 17.0527C133.392 19.2585 133.798 20.9993 133.834 22.2754ZM124.674 16.4785C124.3 16.752 124.031 17.0254 123.867 17.2988C123.712 17.5723 123.635 17.8958 123.635 18.2695C123.635 18.6341 123.699 18.9622 123.826 19.2539C123.963 19.5365 124.15 19.7734 124.387 19.9648C124.888 20.3568 125.449 20.5527 126.068 20.5527C126.697 20.5527 127.212 20.4798 127.613 20.334C128.014 20.1882 128.361 20.0013 128.652 19.7734C129.281 19.2812 129.596 18.7617 129.596 18.2148C129.541 17.5312 129.163 16.9935 128.461 16.6016C127.832 16.237 127.089 16.0547 126.232 16.0547C125.567 16.0547 125.048 16.196 124.674 16.4785ZM139.453 4.93945C138.833 4.93945 138.305 4.72526 137.867 4.29688C137.43 3.8776 137.211 3.34896 137.211 2.71094C137.211 2.09115 137.43 1.5625 137.867 1.125C138.286 0.705729 138.815 0.496094 139.453 0.496094C140.428 0.496094 141.112 0.942708 141.504 1.83594C141.622 2.10026 141.682 2.39193 141.682 2.71094C141.682 3.34896 141.463 3.8776 141.025 4.29688C140.588 4.72526 140.064 4.93945 139.453 4.93945ZM141.053 19.2402C141.053 19.8874 141.267 20.2109 141.695 20.2109C141.841 20.2109 142.005 20.1699 142.188 20.0879C142.543 19.9329 142.785 19.8555 142.912 19.8555C143.104 19.8555 143.258 19.9876 143.377 20.252L143.801 21.209C143.874 21.3639 143.91 21.5098 143.91 21.6465C143.91 22.0384 143.573 22.403 142.898 22.7402C142.26 23.0684 141.627 23.2324 140.998 23.2324C140.378 23.2324 139.882 23.1641 139.508 23.0273C139.134 22.8906 138.815 22.6628 138.551 22.3438C138.022 21.6875 137.758 20.6211 137.758 19.1445V8.48047C137.758 8.22526 137.831 8.01107 137.977 7.83789C138.122 7.66471 138.296 7.57812 138.496 7.57812H140.328C140.538 7.57812 140.711 7.66471 140.848 7.83789C140.984 8.01107 141.053 8.22526 141.053 8.48047V19.2402ZM147.137 8.5625C147.137 7.90625 147.451 7.57812 148.08 7.57812H148.832C149.342 7.57812 149.689 7.76953 149.871 8.15234C150.126 8.69922 150.345 9.41927 150.527 10.3125C151.348 8.81771 152.569 7.86068 154.191 7.44141C154.702 7.30469 155.335 7.23633 156.092 7.23633C156.857 7.23633 157.564 7.40039 158.211 7.72852C158.858 8.04753 159.368 8.48958 159.742 9.05469C160.435 10.0846 160.781 11.6022 160.781 13.6074V22.0977C160.781 22.3529 160.699 22.5671 160.535 22.7402C160.371 22.9134 160.13 23 159.811 23H158.471C158.124 23 157.869 22.9134 157.705 22.7402C157.541 22.5671 157.459 22.3529 157.459 22.0977V13.5938C157.459 11.2604 156.602 10.0938 154.889 10.0938C153.886 10.0938 152.97 10.513 152.141 11.3516C151.257 12.2539 150.814 13.3021 150.814 14.4961V22.0977C150.814 22.3529 150.737 22.5671 150.582 22.7402C150.427 22.9134 150.19 23 149.871 23H148.463C148.144 23 147.902 22.9134 147.738 22.7402C147.574 22.5671 147.492 22.3529 147.492 22.0977V13.7031C147.492 11.8711 147.433 10.5951 147.314 9.875C147.196 9.14583 147.137 8.70833 147.137 8.5625Z" fill="#242849"/>
</svg>
