<svg width="42" height="39" viewBox="0 0 42 39" fill="none" xmlns="http://www.w3.org/2000/svg">
<path d="M34.3401 19.5746C34.3401 19.5746 31.7469 22.9621 31.0303 23.6705C29.3868 25.2928 27.095 26.1783 24.8259 26.6124C21.9825 27.1449 19.0436 26.5972 16.5797 25.0757C14.1157 23.5541 12.3024 21.1673 11.4917 18.3784C10.6811 15.5895 10.9309 12.5975 12.1926 9.98324C13.4544 7.36894 15.6381 5.31879 18.32 4.23073C20.4583 3.36814 22.0791 3.0311 24.3368 3.50524L25.7471 0.317652C23.2084 -0.214102 20.5757 -0.0764529 18.1056 0.717197C15.6355 1.51085 13.4121 2.93345 11.6518 4.84651C9.89151 6.75956 8.65436 9.09787 8.06079 11.6338C7.46722 14.1697 7.53747 16.8168 8.26469 19.3173C8.9919 21.8179 10.3513 24.0866 12.2106 25.9028C14.0698 27.7189 16.3655 29.0205 18.8742 29.6808C21.3829 30.3412 24.0191 30.3378 26.5261 29.6709C29.0331 29.004 31.3254 27.6965 33.18 25.8755C37.7182 23.739 38.2243 22.3737 38.2243 22.3737L34.3401 19.5746Z" fill="#407BFF"/>
<path d="M38.1844 22.3511C38.1844 22.3511 33.7827 27.0468 32.5373 30.0573C29.8028 32.0047 26.5702 33.1247 23.222 33.2848C19.853 33.4531 16.5042 32.6715 13.5542 31.0284C10.6464 29.4199 8.27328 26.9884 6.72986 24.0363C5.23987 21.1286 4.33565 17.8724 4.77354 14.6791C4.87022 13.7594 4.94415 13.0911 5.04652 12.1885C4.67687 12.2342 1.86182 12.3256 0.428709 12.5198C0.332031 12.9825 0.246726 13.5423 0.18417 14.0108C-0.378899 18.1506 0.3566 22.3638 2.28834 26.0642C4.27314 29.8632 7.3242 32.9935 11.0633 35.0672C14.8798 37.1957 19.2153 38.2032 23.5746 37.9748C27.8332 37.6822 31.9161 36.1564 35.3296 33.5819C39.3957 30.6285 41.8127 25.0931 41.8127 25.0931L38.1844 22.3511Z" fill="#407BFF"/>
<path d="M25.7755 7.53823C24.6334 7.06471 23.396 6.86898 22.1643 6.96698C20.7981 7.03827 19.4691 7.43855 18.2893 8.13405C17.1095 8.82955 16.1135 9.79987 15.3853 10.9632C14.6571 12.1265 14.2182 13.4486 14.1054 14.8181C13.9927 16.1875 14.2095 17.5641 14.7375 18.8318C15.2656 20.0994 16.0894 21.2209 17.1394 22.1016C18.1895 22.9824 19.435 23.5965 20.7709 23.8922C22.1069 24.188 23.494 24.1566 24.8154 23.8009C26.1367 23.4451 27.3535 22.7754 28.3631 21.8481C29.7109 20.6199 30.962 18.9404 30.962 17.0439L27.601 16.5069C27.4418 17.5956 26.8842 18.5855 26.0371 19.2832C25.4362 19.8299 24.7135 20.2237 23.9297 20.4317C23.1459 20.6397 22.3239 20.6557 21.5326 20.4785C20.7414 20.3012 20.004 19.9358 19.3824 19.413C18.7609 18.8902 18.2733 18.2252 17.9606 17.4739C17.6479 16.7226 17.5192 15.9068 17.5854 15.0952C17.6516 14.2836 17.9107 13.4998 18.3409 12.8096C18.7711 12.1193 19.3599 11.5429 20.0579 11.1286C20.7558 10.7144 21.5425 10.4744 22.352 10.4288C23.011 10.3832 23.6729 10.4528 24.3083 10.6344L25.7755 7.53823Z" fill="#407BFF"/>
<path d="M22.8696 18.0266C24.126 18.0266 25.1444 17.0035 25.1444 15.7416C25.1444 14.4796 24.126 13.4565 22.8696 13.4565C21.6133 13.4565 20.5948 14.4796 20.5948 15.7416C20.5948 17.0035 21.6133 18.0266 22.8696 18.0266Z" fill="#407BFF"/>
<path d="M31.4 2.88855C31.4 2.88855 30.9336 17.3298 30.9621 17.307C30.9905 17.2841 27.5954 16.5872 27.6011 16.5072C27.6068 16.4272 27.9878 0.88916 27.9878 0.88916L31.4 2.88855Z" fill="#407BFF"/>
<path d="M36.7741 22.3569L32.725 25.3846L24.0979 28.3951L13.5543 25.3846L10.5743 30.0231L15.6926 33.1365L23.0345 33.9648L36.2396 30.6515L38.8669 23.6651L36.7741 22.3569Z" fill="#407BFF"/>
</svg>
