<svg width="616" height="445" viewBox="0 0 616 445" fill="none" xmlns="http://www.w3.org/2000/svg">
<path d="M34 124.405C34 332.515 65.5167 445 246.737 445C490.991 445 647.656 266.5 506.75 266.5C506.75 266.5 497.886 264.071 362.955 288.839C297.312 288.839 198.694 237.415 160.067 186.839C94.4421 100.914 34 49.0505 34 124.405Z" fill="#407BFF" fill-opacity="0.2"/>
<path d="M313.427 131.99C306.978 154.747 273.96 132.234 240.148 122.93C206.335 113.626 195.376 82.7923 201.825 60.0356C208.274 37.2788 234.819 54.8373 264.875 77.3849C294.931 99.9325 319.876 109.233 313.427 131.99Z" fill="#407BFF" fill-opacity="0.2"/>
<path style="mix-blend-mode:multiply" d="M130.675 318.856C130.675 318.856 110.773 160.849 142.58 151.631C176.64 141.756 148.813 318.856 148.813 318.856H130.675Z" fill="url(#paint0_linear_91_357)"/>
<path d="M143.355 171.663C141.028 207.15 141.641 242.764 145.189 278.153" stroke="white" stroke-miterlimit="10" stroke-linecap="round"/>
<path style="mix-blend-mode:multiply" d="M112.606 320.02C112.508 320.02 89 216 66.3199 203.532C66.3199 203.532 63.335 209.5 61.335 224C59.335 238.5 58 252 59 266C60.7114 289.959 69.8817 320.02 69.8817 320.02H112.606Z" fill="url(#paint1_linear_91_357)"/>
<path d="M72.0916 242.001C72.0916 242.001 84.8607 271.005 89.8383 319.058" stroke="white" stroke-miterlimit="10" stroke-linecap="round"/>
<path style="mix-blend-mode:multiply" d="M237.93 318.181C237.93 318.181 247.004 267.313 263.673 271.382C282.613 275.978 248.972 318.181 248.972 318.181H237.93Z" fill="url(#paint2_linear_91_357)"/>
<path style="mix-blend-mode:multiply" d="M135.296 318.181C135.296 318.181 130.532 246.22 109.98 217.751C109.98 217.751 88.9568 257.735 115.537 317.778L135.296 318.181Z" fill="url(#paint3_linear_91_357)"/>
<path d="M566.927 327.688L569.937 330.653L566.927 333.626" stroke="#B8BFD1" stroke-width="2" stroke-miterlimit="10"/>
<path opacity="0.5" d="M574.834 327.688L577.844 330.653L574.834 333.626" stroke="#B8BFD1" stroke-width="2" stroke-miterlimit="10"/>
<path opacity="0.23" d="M582.742 327.688L585.751 330.653L582.742 333.626" stroke="#B8BFD1" stroke-width="2" stroke-miterlimit="10"/>
<path d="M264.101 178.697C263.522 178.243 263.15 177.583 263.065 176.86C262.98 176.136 263.189 175.409 263.646 174.838L266.024 171.873C266.977 170.689 268.241 169.996 269.443 170.935C269.443 170.935 271.687 173.119 273.174 172.443C274.875 171.68 278.143 168.102 279.773 165.524C280.912 163.708 277.27 160.937 277.27 160.937C276.059 159.998 276.469 158.867 277.422 157.683L279.799 154.718C280.026 154.434 280.307 154.198 280.627 154.021C280.947 153.845 281.3 153.733 281.664 153.691C282.028 153.65 282.397 153.679 282.749 153.779C283.102 153.879 283.431 154.046 283.717 154.271C293.165 161.638 276.692 185.187 264.101 178.697Z" fill="#407BFF"/>
<path d="M463.536 304.131H386.28V318.181H463.536V304.131Z" fill="#8885F7"/>
<path d="M454.988 295.922H394.828V304.131H454.988V295.922Z" fill="#B4B3FC"/>
<path d="M403.965 282.538H293.121C292.771 282.539 292.425 282.461 292.111 282.309C291.797 282.157 291.523 281.936 291.31 281.663C291.097 281.39 290.952 281.071 290.884 280.733C290.816 280.395 290.829 280.046 290.921 279.714L313.236 198.842C313.648 197.359 314.542 196.051 315.783 195.117C317.023 194.184 318.54 193.678 320.101 193.677H430.945C431.295 193.675 431.64 193.754 431.954 193.905C432.268 194.057 432.543 194.278 432.756 194.552C432.968 194.825 433.114 195.143 433.182 195.481C433.249 195.819 433.237 196.168 433.145 196.501L410.83 277.364C410.42 278.848 409.526 280.159 408.285 281.094C407.045 282.029 405.527 282.536 403.965 282.538Z" fill="#8385FC"/>
<path d="M405.535 282.538H294.691C294.342 282.539 293.996 282.461 293.682 282.309C293.368 282.158 293.094 281.936 292.881 281.663C292.668 281.39 292.522 281.071 292.455 280.733C292.387 280.395 292.4 280.047 292.492 279.714L314.807 198.842C315.218 197.359 316.113 196.051 317.354 195.117C318.594 194.184 320.111 193.678 321.672 193.677H432.525C432.874 193.677 433.218 193.756 433.531 193.908C433.844 194.061 434.117 194.282 434.329 194.555C434.541 194.829 434.686 195.146 434.753 195.484C434.82 195.821 434.807 196.169 434.716 196.501L412.401 277.364C411.991 278.848 411.097 280.159 409.856 281.094C408.616 282.029 407.097 282.536 405.535 282.538Z" fill="url(#paint4_linear_91_357)"/>
<path d="M355.257 239.94L338.792 305.534C338.223 307.802 336.899 309.817 335.032 311.257C333.164 312.697 330.861 313.48 328.489 313.48H314.955C314.322 313.48 313.715 313.728 313.267 314.169C312.82 314.609 312.568 315.207 312.568 315.831C312.568 316.454 312.82 317.052 313.267 317.493C313.715 317.933 314.322 318.181 314.955 318.181H350.573C352.665 318.184 354.698 317.494 356.344 316.221C357.99 314.948 359.153 313.168 359.647 311.165L376.708 241.116C376.794 240.762 376.798 240.394 376.718 240.038C376.639 239.683 376.479 239.35 376.25 239.065C376.021 238.779 375.729 238.549 375.397 238.391C375.064 238.232 374.699 238.15 374.33 238.151H357.598C357.063 238.156 356.544 238.334 356.122 238.657C355.699 238.98 355.395 239.431 355.257 239.94Z" fill="url(#paint5_linear_91_357)"/>
<path d="M488.291 323.969H60.8718V318.181H488.291C489.07 318.181 489.818 318.486 490.369 319.029C490.92 319.571 491.229 320.308 491.229 321.075C491.229 321.843 490.92 322.579 490.369 323.122C489.818 323.665 489.07 323.969 488.291 323.969Z" fill="#0E225C"/>
<path d="M90.3906 164.261C87.6404 164.989 85.1614 166.482 83.2504 168.561C81.3393 170.64 80.0772 173.218 79.6149 175.986C79.1527 178.754 79.51 181.594 80.6441 184.167C81.7782 186.739 83.641 188.936 86.0095 190.493V197.071L90.6755 192.528C92.8755 193.073 95.1732 193.115 97.3919 192.649C99.6107 192.183 101.691 191.222 103.474 189.84C105.257 188.458 106.694 186.691 107.675 184.677C108.656 182.662 109.154 180.452 109.133 178.218C109.111 175.984 108.569 173.784 107.549 171.788C106.529 169.792 105.057 168.054 103.248 166.706C101.439 165.358 99.3397 164.436 97.1123 164.012C94.8848 163.589 92.5884 163.673 90.3995 164.261H90.3906ZM89.5802 180.924C89.3278 181.001 89.058 181.001 88.8054 180.925C88.5528 180.85 88.3288 180.701 88.1622 180.5C87.9956 180.298 87.8939 180.052 87.8701 179.793C87.8463 179.534 87.9015 179.274 88.0287 179.046C88.1558 178.818 88.3491 178.632 88.5838 178.513C88.8186 178.394 89.084 178.347 89.3463 178.377C89.6085 178.407 89.8556 178.514 90.0559 178.684C90.2562 178.853 90.4006 179.077 90.4707 179.328C90.5212 179.493 90.538 179.667 90.52 179.839C90.5021 180.01 90.4498 180.177 90.3662 180.328C90.2826 180.48 90.1693 180.614 90.0329 180.722C89.8964 180.831 89.7396 180.911 89.5713 180.96L89.5802 180.924ZM94.6202 179.574C94.2897 179.641 93.9457 179.581 93.6583 179.407C93.3709 179.233 93.1616 178.957 93.0731 178.636C92.9846 178.316 93.0235 177.974 93.1819 177.68C93.3403 177.387 93.6062 177.164 93.9257 177.057C94.0935 177.01 94.269 176.998 94.4419 177.019C94.6148 177.04 94.7816 177.096 94.9326 177.182C95.0835 177.267 95.2156 177.382 95.321 177.519C95.4263 177.655 95.503 177.811 95.5463 177.978C95.5976 178.145 95.6142 178.32 95.5951 178.493C95.576 178.667 95.5216 178.835 95.4352 178.987C95.3488 179.139 95.232 179.273 95.092 179.38C94.952 179.487 94.7915 179.564 94.6202 179.609V179.574ZM99.6602 178.223C99.3297 178.29 98.9857 178.23 98.6983 178.056C98.4108 177.882 98.2016 177.607 98.1131 177.286C98.0246 176.965 98.0635 176.623 98.2219 176.33C98.3803 176.036 98.6462 175.813 98.9657 175.706C99.2962 175.639 99.6402 175.699 99.9276 175.873C100.215 176.047 100.424 176.323 100.513 176.643C100.601 176.964 100.562 177.306 100.404 177.6C100.246 177.893 99.9796 178.116 99.6602 178.223Z" fill="#FAA930"/>
<path d="M259.461 115.392C259.207 115.335 258.967 115.229 258.755 115.081C258.542 114.932 258.362 114.743 258.223 114.526C258.085 114.308 257.992 114.066 257.949 113.813C257.906 113.559 257.915 113.3 257.974 113.05L258.758 109.761C259.083 108.367 259.684 107.049 260.528 105.884C261.371 104.719 262.44 103.73 263.673 102.973L265.312 101.973C266.686 101.221 267.875 100.178 268.791 98.9197C269.707 97.6609 270.328 96.2177 270.61 94.6939C271 93.0273 270.701 91.2765 269.78 89.8266C268.859 88.3767 267.391 87.3466 265.699 86.9628C264.007 86.579 262.229 86.873 260.757 87.7801C259.285 88.6872 258.239 90.1331 257.85 91.7997L257.413 93.6502C257.367 93.9118 257.267 94.1613 257.119 94.3836C256.971 94.6058 256.779 94.7961 256.555 94.9429C256.33 95.0897 256.077 95.1898 255.812 95.2372C255.547 95.2846 255.274 95.2783 255.012 95.2187C254.749 95.1591 254.501 95.0474 254.284 94.8904C254.066 94.7334 253.883 94.5344 253.747 94.3056C253.61 94.0768 253.522 93.8229 253.488 93.5594C253.454 93.296 253.474 93.0285 253.549 92.7732L253.985 90.9226C254.727 88.3823 256.427 86.2176 258.738 84.8719C261.048 83.5261 263.793 83.1012 266.41 83.6841C269.028 84.2671 271.321 85.8137 272.818 88.0073C274.316 90.201 274.905 92.8755 274.466 95.4832C274.077 97.5307 273.238 99.4694 272.007 101.163C270.776 102.857 269.184 104.265 267.342 105.289L265.775 106.253C264.979 106.741 264.291 107.38 263.749 108.133C263.208 108.886 262.825 109.738 262.623 110.638L261.848 113.954C261.723 114.455 261.402 114.888 260.955 115.157C260.508 115.427 259.971 115.511 259.461 115.392Z" fill="#407BFF"/>
<path d="M260.637 120.4C260.541 120.815 260.322 121.192 260.008 121.484C259.694 121.777 259.299 121.97 258.873 122.041C258.447 122.112 258.009 122.056 257.615 121.882C257.221 121.707 256.888 121.421 256.659 121.061C256.431 120.7 256.316 120.28 256.329 119.855C256.343 119.429 256.484 119.018 256.736 118.672C256.987 118.326 257.337 118.061 257.742 117.911C258.146 117.761 258.587 117.733 259.007 117.83C259.568 117.96 260.055 118.303 260.36 118.784C260.665 119.266 260.765 119.846 260.637 120.4Z" fill="#407BFF"/>
<path d="M157.682 99.4387V99.4913C158.076 100.635 158.21 101.849 158.076 103.049C157.942 104.249 157.544 105.406 156.908 106.437L156.293 107.551C155.526 108.942 155.35 110.576 155.803 112.094L156.462 114.287L154.405 112.015C154.007 110.29 154.263 108.481 155.127 106.929L155.741 105.815C156.292 104.932 156.637 103.941 156.753 102.911C156.868 101.881 156.751 100.839 156.409 99.8597C156.081 98.7618 155.323 97.8373 154.303 97.2896C153.282 96.7419 152.083 96.6158 150.968 96.9391C149.853 97.2625 148.915 98.0087 148.359 99.0136C147.803 100.019 147.675 101.2 148.003 102.298L148.368 103.517C148.441 103.755 148.443 104.009 148.374 104.249C148.304 104.488 148.166 104.703 147.976 104.868L147.086 103.885L146.721 102.675C146.505 101.964 146.434 101.219 146.511 100.481C146.589 99.7432 146.813 99.0277 147.173 98.3758C147.532 97.7238 148.018 97.1481 148.604 96.6818C149.189 96.2155 149.863 95.8678 150.585 95.6586C152.028 95.2478 153.577 95.4108 154.899 96.1127C156.221 96.8146 157.211 97.9994 157.655 99.4124L157.682 99.4387Z" fill="white"/>
<path d="M158.956 99.0616L159 99.2106C159.432 100.505 159.575 101.876 159.422 103.231C159.268 104.585 158.821 105.891 158.11 107.06L157.495 108.174C157.197 108.712 157.009 109.303 156.944 109.912C156.878 110.522 156.935 111.138 157.112 111.726L157.771 113.919C157.87 114.251 157.831 114.609 157.663 114.913C157.494 115.218 157.21 115.443 156.872 115.541C156.534 115.639 156.171 115.6 155.862 115.434C155.553 115.268 155.324 114.988 155.225 114.655L154.566 112.471C154.521 112.314 154.485 112.165 154.441 112.015C154.043 110.29 154.299 108.481 155.162 106.929L155.777 105.815C156.327 104.932 156.673 103.941 156.788 102.911C156.904 101.881 156.786 100.839 156.444 99.8597C156.116 98.7618 155.359 97.8373 154.338 97.2896C153.318 96.7418 152.118 96.6158 151.004 96.9391C149.889 97.2624 148.95 98.0086 148.394 99.0136C147.838 100.019 147.71 101.2 148.039 102.298L148.404 103.517C148.477 103.755 148.479 104.009 148.409 104.249C148.34 104.488 148.202 104.703 148.012 104.868C147.871 104.997 147.699 105.09 147.513 105.139C147.346 105.189 147.17 105.206 146.997 105.189C146.823 105.172 146.654 105.121 146.5 105.04C146.346 104.958 146.21 104.848 146.1 104.714C145.989 104.581 145.907 104.427 145.857 104.262L145.492 103.043C144.956 101.282 145.152 99.384 146.037 97.7656C146.922 96.1471 148.424 94.9413 150.211 94.4132C151.999 93.8852 153.927 94.0783 155.57 94.9501C157.213 95.8218 158.437 97.3007 158.973 99.0616H158.956Z" fill="#407BFF"/>
<path d="M159.205 118.076C159.289 118.35 159.288 118.642 159.202 118.916C159.116 119.189 158.949 119.431 158.723 119.61C158.497 119.79 158.221 119.899 157.932 119.923C157.642 119.948 157.352 119.887 157.098 119.748C156.844 119.609 156.638 119.399 156.506 119.144C156.374 118.889 156.322 118.601 156.357 118.317C156.392 118.033 156.512 117.766 156.702 117.549C156.892 117.333 157.144 117.177 157.424 117.102C157.791 117.002 158.184 117.048 158.517 117.23C158.85 117.412 159.097 117.716 159.205 118.076Z" fill="#407BFF"/>
<path d="M112.34 132.187L94.3618 127.381L97.5586 115.778L104.949 123.987L115.546 120.593L112.34 132.187Z" fill="#FAE630"/>
<path d="M107.781 113.726L101.085 111.937L99.856 116.392L105.359 122.514L113.24 119.97L114.468 115.515L107.781 113.726Z" fill="#FAE630"/>
<path d="M112.296 116.959L102.122 114.237L102.021 114.601L112.196 117.323L112.296 116.959Z" fill="#FAA930"/>
<path d="M111.792 118.824L101.618 116.102L101.518 116.466L111.692 119.188L111.792 118.824Z" fill="#FAA930"/>
<path d="M94.2727 82.4943C94.2727 82.9522 94.1348 83.3999 93.8765 83.7807C93.6182 84.1614 93.251 84.4582 92.8215 84.6334C92.3919 84.8087 91.9192 84.8545 91.4632 84.7652C91.0072 84.6759 90.5883 84.4553 90.2596 84.1315C89.9308 83.8077 89.7069 83.3951 89.6162 82.946C89.5255 82.4969 89.5721 82.0313 89.75 81.6082C89.9279 81.1852 90.2292 80.8236 90.6158 80.5691C91.0024 80.3147 91.4569 80.1789 91.9218 80.1789C92.5453 80.1789 93.1433 80.4229 93.5841 80.8571C94.025 81.2913 94.2727 81.8802 94.2727 82.4943Z" stroke="white" stroke-miterlimit="10" stroke-linecap="round"/>
<path d="M192.722 115.787C192.722 116.245 192.584 116.692 192.325 117.073C192.067 117.454 191.7 117.751 191.27 117.926C190.841 118.101 190.368 118.147 189.912 118.058C189.456 117.968 189.037 117.748 188.709 117.424C188.38 117.1 188.156 116.688 188.065 116.238C187.974 115.789 188.021 115.324 188.199 114.901C188.377 114.478 188.678 114.116 189.065 113.862C189.451 113.607 189.906 113.471 190.371 113.471C190.994 113.471 191.592 113.715 192.033 114.149C192.474 114.584 192.722 115.173 192.722 115.787Z" stroke="white" stroke-miterlimit="10" stroke-linecap="round"/>
<path d="M253.486 145.869C253.486 146.327 253.348 146.775 253.09 147.156C252.832 147.536 252.465 147.833 252.035 148.008C251.606 148.184 251.133 148.229 250.677 148.14C250.221 148.051 249.802 147.83 249.473 147.506C249.144 147.183 248.921 146.77 248.83 146.321C248.739 145.872 248.786 145.406 248.964 144.983C249.142 144.56 249.443 144.198 249.829 143.944C250.216 143.69 250.671 143.554 251.135 143.554C251.759 143.554 252.357 143.798 252.798 144.232C253.239 144.666 253.486 145.255 253.486 145.869Z" stroke="#B0B1FB" stroke-miterlimit="10" stroke-linecap="round"/>
<path style="mix-blend-mode:multiply" d="M209.605 318.181C209.605 318.181 208.055 239.484 240.121 209.428C240.121 209.428 255.063 246.527 232.454 318.225L209.605 318.181Z" fill="url(#paint6_linear_91_357)"/>
<path d="M232.685 233.143C232.685 233.143 235.036 264.673 223.656 311.665" stroke="white" stroke-miterlimit="10" stroke-linecap="round"/>
<path d="M190.994 190.221L190.38 198.132L190.166 200.728L189.525 209.069L171.778 209.376L173.8 192.098L174.841 183.196L175.349 178.89L190.994 190.221Z" fill="#FA8FA4"/>
<path d="M190.371 198.132L190.166 200.763C179.73 200.763 174.948 186.634 174.574 185.485L174.841 183.231C178.063 189.852 183.566 195.133 190.371 198.132Z" fill="#FA8098"/>
<path d="M287.315 222.698C287.315 222.698 295.605 213.629 302.248 212.945C304.706 212.691 300.538 217.795 300.538 217.795H328.507C328.507 217.795 327.466 221.18 325.391 222.698C323.316 224.215 300.538 230.837 300.538 230.837L287.315 222.698Z" fill="#FA8FA4"/>
<path d="M202.57 159.042C204.974 160.849 208.999 162.91 209.569 165.848C210.086 168.479 204.707 177.188 207.254 180.547C211.982 186.801 202.258 195.624 198.804 197.965C190.504 203.605 169.205 187.011 176.417 165.515C181.894 149.176 195.536 153.78 202.57 159.042Z" fill="#FA8FA4"/>
<path d="M177.477 156.183C177.477 156.183 199.819 171.417 210.842 164.953C221.866 158.49 211.403 145.659 211.403 145.659C211.403 145.659 208.955 150.149 200.932 147.544C192.909 144.939 178.065 143.308 177.477 156.183Z" fill="#0A0A0F"/>
<path d="M187.085 154.587C187.085 154.587 181.814 147.115 174.743 151.491C169.401 154.824 170.532 173.32 175.385 180.354C175.385 180.354 175.5 158.621 187.085 154.587Z" fill="#0A0A0F"/>
<path d="M190.754 159.262C190.754 159.262 186.346 169.786 181.288 172.373C181.288 172.373 181.742 178.048 176.542 178.065C176.542 178.065 178.118 176.311 176.435 172.303C176.064 171.437 175.786 170.534 175.607 169.611C174.592 164.173 179.409 154.113 184.797 154.701C190.184 155.289 190.754 159.262 190.754 159.262Z" fill="#0A0A0F"/>
<path d="M176.596 180.802C176.596 180.802 172.784 181.223 171.253 178.17C168.492 172.68 174.548 169.4 176.444 172.294L176.596 180.802Z" fill="#FA8FA4"/>
<path d="M191.226 183.713C191.226 183.713 193.194 192.922 198.349 191.045C201.787 189.782 203.942 184.748 203.942 184.748L191.226 183.713Z" fill="white"/>
<path d="M193.541 174.145C193.47 175.092 193.096 175.846 192.704 175.811C192.312 175.776 192.063 174.987 192.143 174.057C192.223 173.128 192.588 172.356 192.971 172.391C193.354 172.426 193.612 173.198 193.541 174.145Z" fill="#2E112E"/>
<path d="M205.064 175.153C204.983 176.109 204.609 176.855 204.226 176.82C203.844 176.785 203.585 175.995 203.657 175.066C203.728 174.136 204.111 173.364 204.494 173.399C204.877 173.434 205.135 174.206 205.064 175.153Z" fill="#2E112E"/>
<path d="M135.296 318.181C135.296 318.181 110.408 239.94 136.106 222.584C161.805 205.227 178.777 201.894 205.072 212.331C231.367 222.768 217.637 318.216 217.637 318.216L135.296 318.181Z" fill="#173796"/>
<path d="M196.88 247.518L237.886 284.169C240.469 286.48 243.549 288.186 246.896 289.16C250.243 290.133 253.77 290.349 257.213 289.79C260.656 289.232 263.927 287.914 266.78 285.935C269.634 283.957 271.996 281.368 273.691 278.363L300.538 230.837L287.315 222.698C287.315 222.698 260.877 253.219 256.327 250.763C251.777 248.307 232.285 206.253 181.377 206.359C156.961 206.42 196.88 247.518 196.88 247.518Z" fill="#173796"/>
<path d="M136.107 222.549C136.107 222.549 110.328 242.308 94.6825 280.898C93.0094 285.019 92.3861 289.48 92.8668 293.893C93.3475 298.306 94.9176 302.536 97.4401 306.213C99.9627 309.891 103.361 312.904 107.338 314.99C111.315 317.076 115.75 318.172 120.256 318.181H177.726L176.64 300.64L136.57 280.468C136.57 280.468 178.439 244.536 136.107 222.549Z" fill="#173796"/>
<path d="M180.131 171.259C180.131 171.259 182.517 150.509 196.159 146.501C194.956 145.565 193.497 145.005 191.969 144.893C190.441 144.78 188.914 145.12 187.584 145.869C187.584 145.869 176.8 151.587 174.939 171.663L180.131 171.259Z" fill="#6970FB"/>
<path d="M192.686 195.194C189.138 193.83 185.904 191.778 183.176 189.16C180.164 186.115 178.385 182.092 178.172 177.846L180.158 177.758C180.158 177.82 180.487 183.845 184.77 187.967C187.359 190.486 190.495 192.393 193.942 193.545L193.408 195.431C193.363 195.413 193.105 195.343 192.686 195.194Z" fill="#0A0A0F"/>
<path d="M191.974 192.852C191.843 193.368 191.908 193.913 192.155 194.386C192.403 194.859 192.816 195.227 193.318 195.422C193.791 195.587 194.31 195.561 194.763 195.348C195.215 195.136 195.564 194.756 195.732 194.29C195.899 193.825 195.872 193.313 195.657 192.868C195.442 192.422 195.055 192.079 194.583 191.914C194.108 191.714 193.575 191.7 193.09 191.875C192.605 192.049 192.206 192.398 191.974 192.852Z" fill="#0A0A0F"/>
<path d="M175.42 184.775C180.279 184.775 184.218 180.444 184.218 175.101C184.218 169.758 180.279 165.427 175.42 165.427C170.561 165.427 166.622 169.758 166.622 175.101C166.622 180.444 170.561 184.775 175.42 184.775Z" fill="#173796"/>
<path d="M172.58 183.713C176.907 183.713 180.416 179.857 180.416 175.101C180.416 170.344 176.907 166.488 172.58 166.488C168.252 166.488 164.744 170.344 164.744 175.101C164.744 179.857 168.252 183.713 172.58 183.713Z" fill="#8885F7"/>
<path d="M166.614 207.727L173.043 198.535L184.218 206.367L190.166 200.728L195.82 207.534L189.587 214.638L184.182 208.665L179.311 215.62C179.311 215.62 171.404 213.085 166.614 207.727Z" fill="white"/>
<path d="M150.345 259.735L136.766 280.872C136.305 281.59 136.014 282.401 135.913 283.244C135.812 284.088 135.904 284.943 136.183 285.747C136.461 286.551 136.918 287.284 137.522 287.891C138.125 288.498 138.858 288.965 139.668 289.256L179.374 303.482" fill="#173796"/>
<path d="M150.345 259.735L136.766 280.872C136.305 281.59 136.014 282.401 135.913 283.244C135.812 284.088 135.904 284.943 136.183 285.747C136.461 286.551 136.918 287.284 137.522 287.891C138.125 288.498 138.858 288.965 139.668 289.256L179.374 303.482" stroke="#0A0A0F" stroke-miterlimit="10"/>
<path d="M177.727 318.181L179.392 306.385C179.392 306.385 199.872 312.2 201.146 313.27C202.419 314.34 206.177 318.181 206.177 318.181H177.727Z" fill="#FA8FA4"/>
<path d="M136.347 130.24L135.314 136.897" stroke="white" stroke-miterlimit="10" stroke-linecap="round"/>
<path d="M139.232 134.108L132.482 133.038" stroke="white" stroke-miterlimit="10" stroke-linecap="round"/>
<path d="M307.493 165.918L306.451 172.575" stroke="#B0B1FB" stroke-miterlimit="10" stroke-linecap="round"/>
<path d="M310.369 169.777L303.619 168.707" stroke="#B0B1FB" stroke-miterlimit="10" stroke-linecap="round"/>
<path d="M80.6846 142.58H75.2439V147.939H80.6846V142.58Z" stroke="white" stroke-miterlimit="10" stroke-linecap="round"/>
<path d="M223.9 82.574L219.782 79.0718L216.227 83.1277L220.345 86.6299L223.9 82.574Z" stroke="#9DA5FE" stroke-miterlimit="10" stroke-linecap="round"/>
<path d="M283.521 284.003H259.479C258.77 284.003 258.091 284.28 257.59 284.773C257.089 285.267 256.808 285.936 256.808 286.634V302.131C256.806 305.611 257.878 309.008 259.88 311.875L262.818 316.094C263.263 316.731 263.858 317.253 264.553 317.614C265.248 317.974 266.022 318.163 266.807 318.163H276.22C277.011 318.164 277.79 317.974 278.489 317.608C279.188 317.243 279.784 316.713 280.227 316.067L283.69 311.042C285.362 308.608 286.256 305.736 286.255 302.798V286.651C286.257 286.299 286.188 285.95 286.051 285.625C285.914 285.299 285.712 285.005 285.457 284.757C285.202 284.51 284.899 284.316 284.567 284.187C284.234 284.057 283.879 283.995 283.521 284.003Z" fill="#FAA930"/>
<path d="M268.419 306.49H255.018C253.916 306.526 252.819 306.343 251.791 305.952C250.762 305.562 249.824 304.972 249.032 304.217C248.24 303.462 247.61 302.558 247.18 301.559C246.75 300.559 246.529 299.485 246.529 298.399C246.529 297.314 246.75 296.24 247.18 295.24C247.61 294.241 248.24 293.337 249.032 292.582C249.824 291.827 250.762 291.237 251.791 290.846C252.819 290.456 253.916 290.273 255.018 290.309H268.419V306.49ZM255.018 293.878C254.398 293.851 253.779 293.948 253.199 294.163C252.618 294.379 252.087 294.707 251.639 295.13C251.191 295.552 250.834 296.06 250.59 296.622C250.347 297.184 250.221 297.788 250.221 298.399C250.221 299.01 250.347 299.615 250.59 300.177C250.834 300.739 251.191 301.247 251.639 301.669C252.087 302.092 252.618 302.42 253.199 302.635C253.779 302.85 254.398 302.947 255.018 302.921H264.813V293.878H255.018Z" fill="#FAAE3D"/>
<path d="M272.355 273.978C272.355 273.978 267.404 270.093 269.292 264.006C271.18 257.92 275.205 253.912 272.355 249.605C272.355 249.605 279.479 250.64 276.923 257.779C274.368 264.918 270.165 269.383 272.355 273.978Z" fill="url(#paint7_linear_91_357)"/>
<path d="M267.431 261.787C267.431 261.787 262.587 268.742 267.431 273.978C273.174 280.17 270.637 283.02 270.637 283.02C270.637 283.02 268.856 280.267 264.127 277.214C259.987 274.548 256.879 265.813 267.431 261.787Z" fill="url(#paint8_linear_91_357)"/>
<defs>
<linearGradient id="paint0_linear_91_357" x1="130.79" y1="138.511" x2="149.155" y2="289.394" gradientUnits="userSpaceOnUse">
<stop stop-color="#9CEDFF"/>
<stop offset="1" stop-color="#FFE5F5"/>
</linearGradient>
<linearGradient id="paint1_linear_91_357" x1="27.959" y1="183.15" x2="94.8074" y2="302.37" gradientUnits="userSpaceOnUse">
<stop stop-color="#919DFF"/>
<stop offset="1" stop-color="#407BFF"/>
</linearGradient>
<linearGradient id="paint2_linear_91_357" x1="237.93" y1="294.668" x2="269.452" y2="294.668" gradientUnits="userSpaceOnUse">
<stop stop-color="#919DFF"/>
<stop offset="1" stop-color="#FFE5F5"/>
</linearGradient>
<linearGradient id="paint3_linear_91_357" x1="108.511" y1="209.06" x2="119.815" y2="301.954" gradientUnits="userSpaceOnUse">
<stop stop-color="#919DFF"/>
<stop offset="1" stop-color="#FFE5F5"/>
</linearGradient>
<linearGradient id="paint4_linear_91_357" x1="292.412" y1="238.116" x2="434.796" y2="238.116" gradientUnits="userSpaceOnUse">
<stop stop-color="#919DFF"/>
<stop offset="1" stop-color="#FBC99C" stop-opacity="0.2"/>
</linearGradient>
<linearGradient id="paint5_linear_91_357" x1="307.59" y1="318.304" x2="483.293" y2="166.099" gradientUnits="userSpaceOnUse">
<stop stop-color="#919DFF"/>
<stop offset="1" stop-color="#FFE5F5"/>
</linearGradient>
<linearGradient id="paint6_linear_91_357" x1="240.085" y1="186.274" x2="222.453" y2="316.771" gradientUnits="userSpaceOnUse">
<stop stop-color="#919DFF"/>
<stop offset="1" stop-color="#FFE5F5"/>
</linearGradient>
<linearGradient id="paint7_linear_91_357" x1="268.865" y1="261.787" x2="277.484" y2="261.787" gradientUnits="userSpaceOnUse">
<stop stop-color="#919DFF"/>
<stop offset="1" stop-color="#FFE5F5"/>
</linearGradient>
<linearGradient id="paint8_linear_91_357" x1="260.272" y1="272.408" x2="271.198" y2="272.408" gradientUnits="userSpaceOnUse">
<stop stop-color="#919DFF"/>
<stop offset="1" stop-color="#FFE5F5"/>
</linearGradient>
</defs>
</svg>
