<svg width="44" height="44" viewBox="0 0 44 44" fill="none" xmlns="http://www.w3.org/2000/svg">
<g filter="url(#filter0_d_68_16)">
<path d="M39.9306 10.5469C39.7937 11.2097 39.7009 11.8856 39.5134 12.5334C38.2328 16.9584 33.8828 19.9012 29.3041 19.4616C24.8594 19.0359 21.2941 15.6759 20.5769 11.2369C19.7331 6.02437 23.4137 0.942187 28.6131 0.134062C28.8775 0.0928118 29.14 0.0403125 29.4034 0H31.0178C31.0933 0.0262115 31.1707 0.0465834 31.2494 0.0609369C33.1868 0.272632 35.016 1.06149 36.4997 2.32525C37.9835 3.589 39.0533 5.26935 39.5706 7.14844C39.73 7.73156 39.8125 8.33531 39.9306 8.92969V10.5469ZM29.98 1.5C25.3216 1.67719 21.7966 5.48156 21.97 10.1428C22.1378 14.6325 26.0181 18.165 30.595 17.9925C35.0012 17.8266 38.6087 13.9322 38.4344 9.52969C38.2497 4.92937 34.4622 1.32938 29.98 1.5Z" fill="white"/>
<path d="M15.5078 36C15.236 35.9063 14.9547 35.8256 14.695 35.7028C14.0589 35.4029 13.5491 34.888 13.2557 34.2489C12.9622 33.6098 12.9038 32.8876 13.091 32.2097C13.4885 30.7772 14.7963 29.8903 16.3178 30.0225C17.6416 30.1378 18.82 31.3116 18.9428 32.64C19.0863 34.1606 18.206 35.4778 16.7772 35.8838C16.6563 35.9185 16.5372 35.9616 16.4172 36H15.5078ZM17.4766 33C17.4766 32.6022 17.3185 32.2207 17.0372 31.9394C16.7559 31.658 16.3744 31.5 15.9766 31.5C15.5788 31.5 15.1972 31.658 14.9159 31.9394C14.6346 32.2207 14.4766 32.6022 14.4766 33C14.4766 33.3978 14.6346 33.7794 14.9159 34.0607C15.1972 34.342 15.5788 34.5 15.9766 34.5C16.3744 34.5 16.7559 34.342 17.0372 34.0607C17.3185 33.7794 17.4766 33.3978 17.4766 33Z" fill="white"/>
<path d="M28.9824 36C28.7106 35.9063 28.4293 35.8256 28.1696 35.7028C27.5335 35.4029 27.0237 34.888 26.7303 34.2489C26.4368 33.6098 26.3785 32.8876 26.5656 32.2097C26.9631 30.7772 28.2709 29.8903 29.7924 30.0225C31.1162 30.1378 32.2946 31.3116 32.4174 32.64C32.5609 34.1606 31.6806 35.4778 30.2518 35.8838C30.1309 35.9185 30.0118 35.9616 29.8918 36H28.9824ZM30.9465 33.0141C30.9484 32.8171 30.9115 32.6217 30.8379 32.4389C30.7643 32.2562 30.6554 32.0898 30.5174 31.9492C30.3795 31.8085 30.2152 31.6964 30.034 31.6193C29.8527 31.5421 29.658 31.5015 29.461 31.4995C29.2641 31.4976 29.0686 31.5345 28.8859 31.6082C28.7032 31.6818 28.5368 31.7907 28.3961 31.9286C28.2555 32.0666 28.1434 32.2308 28.0663 32.4121C27.9891 32.5934 27.9484 32.788 27.9465 32.985C27.9446 33.182 27.9815 33.3774 28.0551 33.5601C28.1287 33.7429 28.2376 33.9093 28.3756 34.0499C28.5135 34.1906 28.6778 34.3027 28.8591 34.3798C29.0403 34.457 29.235 34.4976 29.432 34.4995C29.629 34.5015 29.8244 34.4645 30.0071 34.3909C30.1898 34.3173 30.3563 34.2084 30.4969 34.0705C30.6375 33.9325 30.7496 33.7683 30.8268 33.587C30.9039 33.4057 30.9446 33.2111 30.9465 33.0141Z" fill="white"/>
<path d="M12.7984 24C12.6569 23.2754 12.5265 22.6013 12.3925 21.9282C11.7712 18.8169 11.1497 15.7057 10.5278 12.5944C10.1172 10.5319 9.72154 8.46941 9.30248 6.40691C9.05686 5.19004 8.19529 4.50004 6.96529 4.50004C6.26311 4.50004 5.55904 4.50004 4.85967 4.50004C4.33654 4.50004 3.99154 4.18598 4.00092 3.73598C4.01029 3.28598 4.33467 3.01317 4.85498 3.00848C5.55623 3.00192 6.26123 2.99535 6.95967 3.00285C8.97529 3.02442 10.4125 4.23285 10.8034 6.21848C10.9656 7.0566 11.1437 7.89285 11.2956 8.73285C11.3359 8.95973 11.4353 9.00566 11.6444 9.00473C13.3169 8.99848 14.9894 8.99848 16.6619 9.00473C17.0969 9.00473 17.4053 9.25879 17.4681 9.63848C17.4944 9.80797 17.4608 9.98132 17.373 10.1287C17.2852 10.276 17.1487 10.3881 16.9872 10.4457C16.8292 10.4859 16.6662 10.5026 16.5034 10.4954C15.0409 10.4954 13.5787 10.4954 12.1169 10.4954H11.6753C11.7737 11.011 11.8628 11.4966 11.9565 11.9804C12.6022 15.2179 13.2487 18.4554 13.8962 21.6929C14.0359 22.3904 14.169 23.0897 14.3247 23.7835C14.3434 23.8679 14.4784 23.9354 14.5712 23.9907C14.6144 24.016 14.6856 23.9954 14.7437 23.9954C20.5562 23.9954 26.3687 23.9969 32.1812 24C32.47 24 32.619 23.9541 32.6622 23.625C32.7334 23.0813 32.8675 22.545 32.9819 22.0069C33.0831 21.5382 33.445 21.2569 33.8519 21.3357C34.2803 21.4172 34.5362 21.7782 34.4509 22.2535C34.2925 23.1263 34.1181 24 33.9306 24.8672C33.8434 25.2779 33.5809 25.4775 33.1581 25.5029C33.0419 25.5104 32.9247 25.5029 32.8075 25.5029H14.455C13.2503 25.5029 12.0465 25.5029 10.8419 25.5029C10.5119 25.5029 10.2419 25.5966 10.0797 25.9004C10.0225 26.0066 9.99216 26.1252 9.99117 26.2459C9.99019 26.3666 10.0186 26.4856 10.074 26.5928C10.1294 26.7 10.2101 26.7921 10.3091 26.8611C10.4081 26.9301 10.5224 26.9739 10.6422 26.9888C10.7818 27.0021 10.9221 27.0055 11.0622 26.9991H35.9753C36.6025 26.9991 36.9372 27.2729 36.925 27.7707C36.9245 27.948 36.8583 28.1189 36.7392 28.2503C36.62 28.3818 36.4565 28.4644 36.28 28.4822C36.1753 28.4918 36.0701 28.4952 35.965 28.4925H10.9112C9.70186 28.4925 8.81029 27.8419 8.5581 26.7882C8.21404 25.3482 9.25186 24.0319 10.7697 23.9963C11.4231 23.9822 12.0765 24 12.7984 24Z" fill="white"/>
<path d="M28.6591 11.6578C29.6753 10.4953 30.6607 9.36932 31.6441 8.24244C32.1907 7.61713 32.7335 6.98994 33.2819 6.36744C33.6457 5.954 34.0657 5.8865 34.4144 6.17994C34.7632 6.47338 34.7716 6.93744 34.4078 7.35463C32.7203 9.29525 31.0285 11.2328 29.3322 13.1671C28.946 13.6078 28.5128 13.6181 28.0928 13.2009C27.1485 12.2634 26.2069 11.3199 25.2682 10.3706C24.8932 9.99556 24.866 9.53806 25.1838 9.22494C25.5016 8.91181 25.9413 8.93057 26.3247 9.314C27.0935 10.0799 27.8585 10.8524 28.6591 11.6578Z" fill="white"/>
</g>
<defs>
<filter id="filter0_d_68_16" x="0.000732422" y="0" width="43.9299" height="44" filterUnits="userSpaceOnUse" color-interpolation-filters="sRGB">
<feFlood flood-opacity="0" result="BackgroundImageFix"/>
<feColorMatrix in="SourceAlpha" type="matrix" values="0 0 0 0 0 0 0 0 0 0 0 0 0 0 0 0 0 0 127 0" result="hardAlpha"/>
<feOffset dy="4"/>
<feGaussianBlur stdDeviation="2"/>
<feComposite in2="hardAlpha" operator="out"/>
<feColorMatrix type="matrix" values="0 0 0 0 0 0 0 0 0 0 0 0 0 0 0 0 0 0 0.25 0"/>
<feBlend mode="normal" in2="BackgroundImageFix" result="effect1_dropShadow_68_16"/>
<feBlend mode="normal" in="SourceGraphic" in2="effect1_dropShadow_68_16" result="shape"/>
</filter>
</defs>
</svg>
